<svg width="129" height="111" viewBox="0 0 129 111" fill="none" xmlns="http://www.w3.org/2000/svg">
<path d="M94.8853 71.8525C97.8265 72.3501 100.629 72.9172 103.275 73.5483C101.908 72.7226 100.356 72.0193 98.0739 71.8024C97.6514 71.7663 97.2038 71.7468 96.7284 71.7468C96.0584 71.7468 95.4496 71.7857 94.8853 71.8525Z" fill="#454545"/>
<path d="M25.4019 73.5984C28.1096 72.9479 30.9841 72.3641 34.0032 71.8526C33.8503 71.8331 33.6946 71.8164 33.5334 71.7997C33.1108 71.7636 32.6632 71.7441 32.1878 71.7441C28.9964 71.7469 27.0699 72.5865 25.4019 73.5984Z" fill="#454545"/>
<path d="M32.1908 71.7469C32.6661 71.7469 33.1137 71.7664 33.5363 71.8025C33.0609 71.758 32.5549 71.7302 32.0101 71.7302C28.713 71.7302 26.7642 72.6254 25.0601 73.6846C25.174 73.6568 25.2908 73.629 25.4048 73.6012C27.07 72.5865 28.9965 71.7469 32.1908 71.7469Z" fill="#454545"/>
<path d="M96.7258 73.3231C97.2011 73.3231 97.6487 73.3425 98.0713 73.3787C97.5959 73.3342 97.0899 73.3064 96.545 73.3064C95.8973 73.3064 95.3052 73.3453 94.752 73.4093C94.7964 73.4176 94.8409 73.4232 94.8854 73.4315C95.4497 73.362 96.0586 73.3231 96.7258 73.3231Z" fill="#454545"/>
<path d="M112.68 77.0845C113.353 77.0845 113.964 77.0455 114.534 76.976C111.304 75.7195 107.607 74.5908 103.528 73.6067C105.78 74.98 107.559 76.6675 111.335 77.0289C111.757 77.065 112.205 77.0845 112.68 77.0845Z" fill="#E4E4E4"/>
<path d="M48.1424 77.0844C56.21 77.0844 56.21 71.7274 64.2775 71.7274C64.8224 71.7274 65.3284 71.7524 65.8038 71.7996C72.0671 72.3195 72.9067 76.4395 79.0671 77.0288C79.4897 77.065 79.9373 77.0844 80.4127 77.0844C87.8297 77.0844 88.433 72.5586 94.7547 71.8302C85.7197 70.3096 75.4059 69.4478 64.4499 69.4478C53.4439 69.4478 43.0856 70.3179 34.02 71.8497C39.8469 72.5363 40.8032 76.4561 46.7997 77.0288C47.2195 77.065 47.667 77.0844 48.1424 77.0844Z" fill="#E4E4E4"/>
<path d="M15.8746 77.0846C20.6451 77.0846 22.5939 75.2137 25.057 73.6819C21.0705 74.6521 17.4565 75.7697 14.29 77.004C14.3707 77.0123 14.4485 77.0234 14.5319 77.0318C14.9545 77.0651 15.3993 77.0846 15.8746 77.0846Z" fill="#E4E4E4"/>
<path d="M32.2265 87.3178C40.2941 87.3178 40.2941 92.6748 48.3617 92.6748C56.4292 92.6748 56.4292 87.3178 64.4968 87.3178C72.5643 87.3178 72.5643 92.6748 80.6319 92.6748C88.6995 92.6748 88.6995 87.3178 96.767 87.3178C104.835 87.3178 104.835 92.6748 112.902 92.6748C120.767 92.6748 120.967 87.5874 128.448 87.3317C127.622 85.1549 125.707 83.0838 122.874 81.174C119.974 82.7586 118.151 85.0604 112.863 85.0604C104.796 85.0604 104.796 79.7034 96.7281 79.7034C88.6605 79.7034 88.6605 85.0604 80.593 85.0604C72.5254 85.0604 72.5254 79.7034 64.4579 79.7034C56.3903 79.7034 56.3903 85.0604 48.3227 85.0604C40.2552 85.0604 40.2552 79.7034 32.1876 79.7034C24.1201 79.7034 24.1201 85.0604 16.0525 85.0604C10.7566 85.0604 8.93847 82.753 6.03059 81.1656C3.20889 83.0672 1.29069 85.1271 0.459473 87.2928C7.90709 87.5652 8.24069 92.6748 16.0914 92.6748C24.1618 92.6748 24.1618 87.3178 32.2265 87.3178Z" fill="#E4E4E4"/>
<path d="M32.1904 79.7033C40.2579 79.7033 40.2579 85.0603 48.3255 85.0603C56.3931 85.0603 56.3931 79.7033 64.4606 79.7033C72.5282 79.7033 72.5282 85.0603 80.5957 85.0603C88.6633 85.0603 88.6633 79.7033 96.7309 79.7033C104.798 79.7033 104.798 85.0603 112.866 85.0603C118.154 85.0603 119.977 82.7613 122.877 81.1739C120.656 79.6755 117.873 78.2771 114.612 77.0067C114.073 77.0678 113.497 77.104 112.866 77.104C112.321 77.104 111.815 77.079 111.34 77.0317C107.398 76.7037 105.602 74.9523 103.278 73.5484C100.634 72.9173 97.829 72.3502 94.8877 71.8526C88.6105 72.5976 87.9933 77.1012 80.5957 77.1012C80.0509 77.1012 79.5449 77.0762 79.0695 77.0289C72.8062 76.5091 71.9666 72.3891 65.8061 71.7997C65.3836 71.7636 64.936 71.7441 64.4606 71.7441C56.3931 71.7441 56.3931 77.1012 48.3255 77.1012C47.7806 77.1012 47.2747 77.0762 46.7993 77.0289C40.7 76.523 39.7436 72.6004 34.0057 71.8526C30.9866 72.3641 28.1121 72.9479 25.4044 73.5984C22.8607 75.1469 20.9314 77.1012 16.058 77.1012C15.5132 77.1012 15.01 77.0762 14.5346 77.0289C14.4512 77.0206 14.3678 77.0122 14.2872 77.0039C11.0346 78.2744 8.25457 79.6671 6.03613 81.1628C8.94401 82.7474 10.7621 85.0576 16.058 85.0576C24.1228 85.0576 24.1228 79.7033 32.1904 79.7033Z" fill="#454545"/>
<path d="M111.334 77.0316C111.81 77.0761 112.316 77.1039 112.861 77.1039C113.492 77.1039 114.067 77.0677 114.607 77.0066C114.582 76.9982 114.559 76.9871 114.534 76.9788C113.964 77.0483 113.353 77.0872 112.68 77.0872C112.205 77.0844 111.757 77.0649 111.334 77.0316Z" fill="#454545"/>
<path d="M79.064 77.0316C79.5393 77.0761 80.0453 77.1039 80.5902 77.1039C87.9905 77.1039 88.6077 72.6003 94.8822 71.8553C94.8377 71.8469 94.7932 71.8413 94.7487 71.833C88.427 72.5614 87.8265 77.0872 80.4067 77.0872C79.9341 77.0844 79.4893 77.065 79.064 77.0316Z" fill="#454545"/>
<path d="M14.5322 77.0318C15.0076 77.0763 15.5136 77.1041 16.0557 77.1041C20.929 77.1041 22.8611 75.1498 25.402 73.6013C25.288 73.6291 25.1713 73.6569 25.0573 73.6847C22.5942 75.2137 20.6454 77.0847 15.875 77.0847C15.3996 77.0847 14.9548 77.0652 14.5322 77.0318Z" fill="#454545"/>
<path d="M48.1424 77.0844C47.667 77.0844 47.2194 77.0649 46.7969 77.0287C47.2723 77.0732 47.7782 77.101 48.3231 77.101C56.3907 77.101 56.3907 71.744 64.4582 71.744C64.9336 71.744 65.3812 71.7634 65.8037 71.7996C65.3284 71.7551 64.8224 71.7273 64.2775 71.7273C56.21 71.7301 56.21 77.0844 48.1424 77.0844Z" fill="#454545"/>
<path d="M105.143 105.518C105.135 105.521 105.127 105.521 105.118 105.524C94.0232 108.371 79.8675 110.077 64.4468 110.077C49.2541 110.077 35.2929 108.421 24.2758 105.652C24.2702 105.649 24.2619 105.649 24.2563 105.646C26.3441 104.264 28.3596 102.833 32.5296 102.833C40.5944 102.833 40.5944 108.19 48.662 108.19C56.7295 108.19 56.7295 102.833 64.7971 102.833C72.8619 102.833 72.8619 108.19 80.9294 108.19C88.997 108.19 88.997 102.833 97.0646 102.833C101.104 102.833 103.122 104.176 105.143 105.518Z" fill="#454545"/>
<path d="M11.563 87.2983C11.563 87.2983 24.6345 61.5222 64.4136 61.3359C104.193 61.1524 116.892 87.2983 116.892 87.2983C116.892 87.2983 103.631 96.6364 64.2273 96.6364C24.8236 96.6364 11.563 87.2983 11.563 87.2983Z" fill="#191919"/>
<path d="M42.3516 78.986L46.9552 8.92163H64.2218L66.7711 52.5621L86.0893 61.3358V78.986C70.3712 84.1234 55.7929 84.1234 42.3516 78.986Z" fill="#E4E4E4"/>
<path d="M86.0893 61.3357L77.2405 65.4834L56.7881 55.8897L66.7711 52.562L86.0893 61.3357Z" fill="#565656"/>
<path d="M77.2402 65.4834V81.36C80.4539 80.6762 83.4535 79.9061 86.089 78.9859V61.3357L77.2402 65.4834Z" fill="#A1A1A1"/>
<path d="M51.8535 48.0641C51.8535 48.0641 52.1816 40.7083 55.4647 40.7083C58.7479 40.7083 59.1427 48.0641 59.1427 48.0641C56.852 48.812 54.4056 48.7341 51.8535 48.0641Z" fill="#A1A1A1"/>
<path d="M51.8535 34.759C51.8535 34.759 52.1816 27.4031 55.4647 27.4031C58.7479 27.4031 59.1427 34.759 59.1427 34.759C56.7157 35.5401 54.2832 35.5401 51.8535 34.759Z" fill="#A1A1A1"/>
<path d="M66.6877 20.7616C59.204 22.7687 51.7452 22.7826 44.3115 20.7616V16.0662C51.7425 17.9927 59.2012 17.9788 66.6877 16.0662V20.7616Z" fill="#565656"/>
<path d="M46.9551 8.92169C52.7097 10.5925 58.4671 10.5925 64.2217 8.92169L55.5898 0.239746L46.9551 8.92169Z" fill="#565656"/>
<path d="M59.8431 81.16C59.8431 81.16 59.2204 68.5054 64.2271 68.4276C69.2339 68.3498 68.9253 81.0182 68.9253 81.0182C68.9253 81.0182 63.7962 81.5214 59.8431 81.16Z" fill="#A1A1A1"/>
<path d="M65.6449 68.9836C65.7311 68.9836 65.8173 68.9864 65.9007 68.9919C65.4225 68.6361 64.8693 68.4387 64.2271 68.447C59.2204 68.5249 59.8431 81.1794 59.8431 81.1794C60.299 81.2211 60.7688 81.2517 61.2442 81.2712C61.1914 79.0305 61.1997 69.0531 65.6449 68.9836Z" fill="#565656"/>
<path d="M55.5007 15.1962C56.0995 15.1962 56.5849 14.7108 56.5849 14.112C56.5849 13.5132 56.0995 13.0278 55.5007 13.0278C54.9019 13.0278 54.4165 13.5132 54.4165 14.112C54.4165 14.7108 54.9019 15.1962 55.5007 15.1962Z" fill="#A1A1A1"/>
<path d="M128.907 89.7641C128.907 91.7602 127.99 93.6867 126.291 95.5076C126.263 95.5354 126.238 95.5632 126.213 95.591C120.987 96.7141 119.997 100.648 113.08 100.648C105.013 100.648 105.013 95.2908 96.9452 95.2908C88.8777 95.2908 88.8777 100.648 80.8101 100.648C72.7426 100.648 72.7426 95.2908 64.6778 95.2908C56.6102 95.2908 56.6102 100.648 48.5427 100.648C40.4751 100.648 40.4751 95.2908 32.4075 95.2908C24.3428 95.2908 24.3428 100.648 16.2752 100.648C9.17508 100.648 8.15482 96.4278 2.5142 95.4159C2.49752 95.3936 2.47528 95.3742 2.45582 95.3547C1.32714 94.1065 0.5682 92.8082 0.21514 91.4738C0.21514 91.4738 -0.34364 89.083 0.43476 87.365C0.44588 87.3428 0.45144 87.3177 0.45978 87.2927C7.9074 87.5652 8.24378 92.6748 16.0945 92.6748C24.1621 92.6748 24.1621 87.3177 32.2268 87.3177C40.2944 87.3177 40.2944 92.6748 48.362 92.6748C56.4295 92.6748 56.4295 87.3177 64.4971 87.3177C72.5619 87.3177 72.5619 92.6748 80.6294 92.6748C88.697 92.6748 88.697 87.3177 96.7645 87.3177C104.832 87.3177 104.832 92.6748 112.9 92.6748C120.764 92.6748 120.964 87.5846 128.445 87.3289C128.451 87.3428 128.454 87.3539 128.459 87.3678C128.751 88.1517 128.907 88.9524 128.907 89.7641Z" fill="#454545"/>
<path d="M48.6622 108.19C56.7297 108.19 56.7297 102.833 64.7973 102.833C72.8649 102.833 72.8648 108.19 80.9324 108.19C89 108.19 89 102.833 97.0675 102.833C101.107 102.833 103.125 104.176 105.146 105.518C115.026 102.98 122.471 99.5386 126.216 95.591C120.992 96.7141 120 100.648 113.083 100.648C105.016 100.648 105.016 95.2908 96.948 95.2908C88.8804 95.2908 88.8804 100.648 80.8129 100.648C72.7453 100.648 72.7453 95.2908 64.6777 95.2908C56.6102 95.2908 56.6102 100.648 48.5426 100.648C40.4751 100.648 40.4751 95.2908 32.4075 95.2908C24.3399 95.2908 24.3399 100.648 16.2724 100.648C9.17226 100.648 8.152 96.4278 2.51416 95.4159C6.26438 99.5025 13.9761 103.061 24.2565 105.646C26.3443 104.265 28.357 102.833 32.527 102.833C40.5946 102.833 40.5946 108.19 48.6622 108.19Z" fill="#E4E4E4"/>
</svg>
