<svg width="142" height="107" viewBox="0 0 142 107" fill="none" xmlns="http://www.w3.org/2000/svg">
<path d="M0.823242 88.0894C0.823242 88.0894 9.23955 64.0441 19.2418 49.1677C26.8606 37.8394 39.9928 28.7093 44.646 28.7093C56.715 28.7093 65.0805 47.8715 65.0805 47.8715C65.0805 47.8715 68.4614 25.3643 78.7174 21.5025C78.7174 21.5025 84.2188 22.969 88.2537 31.0896C88.2537 31.0896 93.4684 15.0813 100.433 15.0813C105.955 15.0813 109.841 32.6337 110.101 45.2134C110.101 45.2134 115.417 41.5279 120.408 41.5279C127.677 41.5279 140.681 86.7245 140.681 86.7245L0.823242 88.0894Z" fill="#FCFCFF"/>
<path d="M125.831 59.2653C125.831 66.027 124.634 73.7505 121.187 73.7505C117.755 73.7505 44.619 67.4039 41.9877 67.4039C39.8404 67.4039 33.667 71.2178 31.1523 71.2178C29.7426 71.2178 21.9564 73.7534 19.6687 73.7534C16.2251 73.7534 15.7891 68.8404 15.7891 62.7746C15.7891 56.7118 18.5816 51.7958 22.0281 51.7958C23.1571 51.7958 24.2173 52.3244 25.1312 53.2473C25.851 47.2053 28.2732 42.7642 31.1523 42.7642C33.7208 42.7642 35.9249 46.3034 36.8836 51.3597C38.0125 48.7404 39.8792 47.0261 41.9877 47.0261C43.4781 47.0261 44.843 47.8773 45.9152 49.3019C46.3602 42.8299 48.9526 37.8661 52.0855 37.8661C53.8566 37.8661 55.4574 39.452 56.5924 42.0026C57.5421 38.0125 59.3072 35.3305 61.3291 35.3305C64.1336 35.3305 66.4452 40.4914 66.7678 47.1456C67.7355 43.5766 69.9276 41.0857 72.4722 41.0857C75.1094 41.0857 77.3643 43.7588 78.2782 47.5398V47.4652C78.2782 39.4461 81.9279 31.0955 85.3715 31.0955C88.4656 31.0955 91.6344 33.9955 91.5807 41.2679C92.4677 35.7636 94.9078 35.3753 96.5116 35.6411C99.2115 36.0891 101.574 39.7477 102.413 45.4581C103.518 41.3724 105.471 38.6576 107.7 38.6576C111.143 38.6576 113.939 45.1595 113.939 53.1786C113.939 53.4952 113.933 53.8058 113.924 54.1194C114.915 49.9321 117.077 47.0261 119.586 47.0261C123.036 47.0231 125.831 52.5036 125.831 59.2653Z" fill="#A1A1A1"/>
<path d="M17.7721 73.0456C17.7721 73.0456 15.5082 71.1969 15.8218 65.1848C16.1354 59.1727 18.6262 55.4215 21.2246 55.3409C23.823 55.2632 27.6638 58.2499 28.8136 67.8578C28.8136 67.8578 28.6464 58.0766 25.1311 53.2473C25.1311 53.2473 25.4059 48.0087 27.6459 45.2192C29.8858 42.4297 34.9004 48.0744 35.4619 55.7232C36.0233 63.3719 36.1368 65.2296 36.1368 65.2296C36.1368 65.2296 37.2031 53.531 42.7164 53.7669C48.2267 54.0029 47.5965 60.6153 47.5965 60.6153C47.5965 60.6153 45.0191 50.4996 46.4646 45.4402C47.9101 40.3809 53.2651 42.5313 54.6031 47.8713C55.9412 53.2114 56.8073 60.221 56.8073 60.221C56.8073 60.221 52.8978 41.5666 59.8506 35.8173C59.8506 35.8173 61.9234 49.0421 66.1763 52.7425C66.1763 52.7425 65.1071 44.4487 71.0356 41.3515C71.0356 41.3515 69.9484 54.6002 76.4473 59.8119L81.3723 60.2061C81.3723 60.2061 76.7042 56.3115 78.6037 42.7941C78.6037 42.7941 78.9561 36.113 83.0747 33.3235C83.0747 33.3235 80.0313 46.3601 84.8338 50.5324C84.8338 50.5324 87.5904 52.2647 90.4247 49.0361C90.4247 49.0361 89.9379 40.9065 94.2357 36.6267C98.5334 32.3469 99.9431 51.5807 98.3453 55.774C98.3453 55.774 100.006 46.5542 104.74 46.5542C112.657 46.5542 113.726 63.4466 113.726 63.4466C113.726 63.4466 111.609 50.5354 118.06 47.3845C118.06 47.3845 111.406 59.7312 125.655 63.5183C125.655 63.5183 125.261 71.8689 122.349 73.2875L17.7721 73.0456Z" fill="#454545"/>
<path d="M141.514 89.6155C141.514 98.7426 109.961 106.14 71.0389 106.14C32.1172 106.14 0.563477 98.7426 0.563477 89.6155C0.563477 84.816 9.28442 76.8029 23.2111 70.2801C35.7758 64.3964 52.5786 59.7253 71.0359 59.7253C82.9286 59.7253 94.1315 61.6637 103.96 64.6174C126.297 71.3284 141.514 83.2779 141.514 89.6155Z" fill="#A1A1A1"/>
<path d="M72.4754 106.143C72.4754 106.143 56.8912 94.7734 58.3158 84.2037C59.6329 74.4315 77.4362 70.7251 66.8904 59.8149L63.8082 59.9702C74.9543 70.7161 56.0041 70.5399 50.5506 82.9344C45.097 95.3289 55.8727 105.758 55.8727 105.758" fill="#191919"/>
<path d="M93.4686 105.182C93.4686 105.182 67.1116 94.7287 68.5332 84.1591C69.8503 74.3868 81.1219 70.6804 70.5761 59.7703L67.4849 59.8151C78.0307 70.7222 60.8457 74.3868 59.5286 84.1591C58.1039 94.7287 73.6882 106.099 73.6882 106.099" fill="#191919"/>
<path d="M57.4853 36.594C57.4853 40.8738 54.0178 44.3413 49.738 44.3413C47.4592 44.3413 45.4103 43.3557 43.9917 41.7907C41.4053 45.4702 37.1284 47.8745 32.2901 47.8745C24.3964 47.8745 17.9961 41.4771 17.9961 33.5805C17.9961 27.1652 22.2222 21.7385 28.0401 19.9286C27.8131 18.9221 27.6967 17.8738 27.6967 16.7986C27.6967 8.90498 34.097 2.50464 41.9907 2.50464C49.8843 2.50464 56.2846 8.90199 56.2846 16.7986C56.2846 21.858 53.6564 26.3051 49.6872 28.8437C49.7051 28.8407 49.72 28.8407 49.738 28.8407C54.0178 28.8437 57.4853 32.3142 57.4853 36.594Z" fill="#191919"/>
<path d="M33.8877 78.114L38.9769 13.4177H40.1835L40.8943 78.114C38.2243 80.3689 35.9305 80.0852 33.8877 78.114Z" fill="#FCFCFF"/>
<path d="M40.2495 39.073C42.5701 37.3019 44.1142 35.0709 45.0072 32.4546H45.9331C44.9445 35.4591 43.0032 38.5563 40.2495 41.7281V39.073Z" fill="#FCFCFF"/>
<path d="M37.3255 36.2147L37.5226 33.4073C34.4016 31.8961 33.6758 25.2837 33.6758 25.2837L32.7769 25.875C33.6519 34.0733 37.2747 36.9017 37.2747 36.9017" fill="#FCFCFF"/>
<path d="M41.6858 25.9288C43.3204 25.9288 44.6456 24.6036 44.6456 22.969C44.6456 21.3344 43.3204 20.0093 41.6858 20.0093C40.0512 20.0093 38.7261 21.3344 38.7261 22.969C38.7261 24.6036 40.0512 25.9288 41.6858 25.9288Z" fill="#191919"/>
<path d="M36.1399 45.2194C38.0697 45.2194 39.6342 43.6549 39.6342 41.7251C39.6342 39.7952 38.0697 38.2307 36.1399 38.2307C34.21 38.2307 32.6455 39.7952 32.6455 41.7251C32.6455 43.6549 34.21 45.2194 36.1399 45.2194Z" fill="#191919"/>
<path d="M53.7047 60.3675C56.7348 60.3675 59.1911 55.7396 59.1911 50.0308C59.1911 44.322 56.7348 39.6941 53.7047 39.6941C50.6746 39.6941 48.2183 44.322 48.2183 50.0308C48.2183 55.7396 50.6746 60.3675 53.7047 60.3675Z" fill="#191919"/>
<path d="M88.6928 36.1012C96.5987 36.1012 103.008 28.2052 103.008 18.4651C103.008 8.72502 96.5987 0.829102 88.6928 0.829102C80.7869 0.829102 74.3779 8.72502 74.3779 18.4651C74.3779 28.2052 80.7869 36.1012 88.6928 36.1012Z" fill="#191919"/>
<path d="M102.461 51.1447C108.119 51.1447 112.705 46.0769 112.705 39.8254C112.705 33.5739 108.119 28.5061 102.461 28.5061C96.8032 28.5061 92.2168 33.5739 92.2168 39.8254C92.2168 46.0769 96.8032 51.1447 102.461 51.1447Z" fill="#191919"/>
<path d="M76.4535 44.4965C80.1549 44.4965 83.1554 41.1804 83.1554 37.0897C83.1554 32.999 80.1549 29.6829 76.4535 29.6829C72.752 29.6829 69.7515 32.999 69.7515 37.0897C69.7515 41.1804 72.752 44.4965 76.4535 44.4965Z" fill="#191919"/>
<path d="M92.2171 76.7491C90.5147 78.0274 88.4868 77.8841 86.7874 76.7491L87.1338 45.2522C79.2402 41.6533 77.8604 36.4028 77.8604 36.4028L78.0784 35.7398C81.0262 41.9848 87.1577 43.1048 87.1577 43.1048L87.4863 13.4177H88.666L92.2171 76.7491Z" fill="#FCFCFF"/>
<path d="M90.8042 51.5867C90.8042 51.5867 97.3449 48.633 101.311 36.1011H101.873C101.873 36.1011 100.445 46.2347 90.9386 53.9462L90.8042 51.5867Z" fill="#FCFCFF"/>
<path d="M87.3639 24.4833L83.7262 19.0596L83.3887 19.5942L87.343 26.3708L87.3639 24.4833Z" fill="#FCFCFF"/>
<path d="M89.6693 79.4969C89.6693 79.4969 86.7275 66.7858 96.3384 66.6992C105.949 66.6126 101.873 79.4969 101.873 79.4969C101.873 79.4969 101.598 72.2722 107.604 72.7053C113.61 73.1413 110.128 80.7154 110.128 80.7154C110.128 80.7154 98.9846 81.5845 89.6693 79.4969Z" fill="#191919"/>
<path d="M47.4205 69.7873C47.4205 69.7873 44.4548 63.6946 48.5315 63.0076C52.6112 62.3177 52.0169 66.9799 52.0169 66.9799C52.0169 66.9799 52.9278 63.6946 56.1086 64.5965C59.2863 65.4985 56.8732 69.3124 56.8732 69.3124L44.7713 69.7903C44.7713 69.7903 43.5528 67.4607 45.4075 67.4069C47.2622 67.3502 47.4205 69.7873 47.4205 69.7873Z" fill="#191919"/>
<path d="M53.5194 57.8079V69.5662C53.5194 69.5662 52.8145 70.062 52.0171 69.5662L52.9877 47.3308H53.5194V56.5296C53.5194 56.5296 56.6284 54.4241 56.4911 47.8624L56.8495 47.8833C56.8136 49.1258 57.4856 53.4803 53.5194 57.8079Z" fill="#FCFCFF"/>
<path d="M27.6404 97.784C27.6404 97.784 17.5575 82.6358 27.7449 81.6831C37.9323 80.7303 33.2045 92.8381 33.2045 92.8381C33.2045 92.8381 36.1194 82.3043 42.5347 86.614C48.6453 90.7176 37.5918 98.2529 37.5918 98.2529C33.9601 99.2026 30.7973 99.2414 27.6404 97.784Z" fill="#191919"/>
<path d="M118.285 94.0327C118.285 94.0327 116.301 91.5657 115.441 90.0635L114.692 87.1127L113.942 86.5751L107.828 86.145L105.039 88.612L102.464 94.0297H118.285V94.0327Z" fill="#FCFCFF"/>
<path d="M107.825 86.1489L110.373 90.366L116.516 94.0336H102.461L105.035 88.6159L107.825 86.1489Z" fill="#686868"/>
<path d="M105.403 89.0032L106.221 90.8549L110.65 91.5448L105.403 89.0032Z" fill="#FCFCFF"/>
<path d="M20.6274 98.3008L23.2228 95.2544L27.1174 94.1255L28.9213 95.5352L29.88 99.5432L21.3054 99.0475L20.6274 98.3008Z" fill="#FCFCFF"/>
<path d="M23.2228 95.2544L25.0417 98.2948L29.88 99.5432L21.3054 99.0474L20.6274 98.3008L23.2228 95.2544Z" fill="#686868"/>
</svg>
