<svg width="26" height="26" viewBox="0 0 26 26" fill="none" xmlns="http://www.w3.org/2000/svg">
<path d="M6.89634 22.8576C6.65038 22.8576 6.41431 22.7187 6.30173 22.4813C6.14625 22.1532 6.28638 21.7611 6.6145 21.6054L19.3407 15.5737C19.6683 15.4179 20.0609 15.5578 20.2167 15.8862C20.3721 16.2143 20.232 16.6064 19.9039 16.7621L7.17741 22.7939C7.08667 22.837 6.99072 22.8576 6.89634 22.8576Z" fill="white"/>
<path d="M10.8985 18.7554C10.8026 18.7554 10.7053 18.7344 10.6133 18.6902L6.6106 16.7607C6.28352 16.6029 6.14598 16.2098 6.30354 15.8827C6.4611 15.5551 6.85552 15.4183 7.18156 15.5759L11.1843 17.5054C11.5113 17.6632 11.6489 18.0563 11.4913 18.3834C11.378 18.6182 11.1429 18.7554 10.8985 18.7554Z" fill="white"/>
<path d="M19.6219 22.8456C19.5259 22.8456 19.4282 22.8243 19.3361 22.7799L15.3805 20.8681C15.0534 20.71 14.9164 20.3166 15.0745 19.9898C15.232 19.6625 15.6259 19.526 15.9528 19.6838L19.9081 21.5956C20.2352 21.7536 20.3722 22.147 20.2142 22.4738C20.1008 22.7086 19.8663 22.8456 19.6219 22.8456Z" fill="white"/>
<path d="M13.3201 16.8765C10.3891 16.8765 8.00439 14.4918 8.00439 11.5608C8.00439 10.4254 8.65595 9.66257 9.23029 8.98969C9.92709 8.17407 10.3067 7.66941 10.0108 6.78203C9.92761 6.53295 10.0012 6.25787 10.197 6.08315C10.3935 5.90817 10.6749 5.86709 10.9128 5.97811C10.9507 5.99579 14.6812 7.79811 13.4639 12.5462C13.3737 12.898 13.0169 13.1096 12.6633 13.0199C12.3118 12.9297 12.0994 12.5715 12.1896 12.2197C12.7489 10.038 12.0529 8.69303 11.3631 7.94501C11.1837 8.72735 10.6728 9.32561 10.2303 9.84379C9.74145 10.4163 9.31921 10.9106 9.31921 11.5608C9.31921 13.7667 11.114 15.5615 13.3196 15.5615C15.5257 15.5615 17.3202 13.7667 17.3202 11.5608C17.3202 10.2429 16.5977 9.25957 15.761 8.12103C14.9448 7.01109 14.0432 5.78389 13.8274 4.11495C13.513 4.47791 13.2343 4.95371 13.1989 5.52025C13.1766 5.88269 12.8687 6.15881 12.5016 6.13567C12.1392 6.11305 11.8636 5.80079 11.8865 5.43835C12.0172 3.34535 14.0699 2.20733 14.157 2.15975C14.3718 2.04275 14.6339 2.05497 14.8372 2.19147C15.0405 2.32771 15.1513 2.56535 15.125 2.80819C14.9149 4.74883 15.8411 6.00853 16.821 7.34207C17.7133 8.55601 18.6358 9.81129 18.6358 11.5606C18.6361 14.4918 16.2511 16.8765 13.3201 16.8765Z" fill="white"/>
</svg>
