<svg width="24" height="26" viewBox="0 0 24 26" fill="none" xmlns="http://www.w3.org/2000/svg">
<path fill-rule="evenodd" clip-rule="evenodd" d="M18.8951 19.9052C17.4944 19.9052 16.2197 19.2092 15.4584 18.0584C17.8297 17.0564 19.6583 15.0695 20.479 12.6412C20.4817 12.6333 20.4843 12.6254 20.487 12.6175C20.508 12.555 20.5283 12.4923 20.5479 12.4292C20.5514 12.4179 20.5548 12.4065 20.5582 12.3952C20.5773 12.3329 20.5961 12.2705 20.6138 12.2077C20.6144 12.2057 20.6149 12.2036 20.6155 12.2015C20.6346 12.1339 20.6535 12.0662 20.6709 11.9979C22.0989 12.6788 23.0267 14.1278 23.0267 15.7506C23.0267 18.0415 21.1733 19.9052 18.8951 19.9052ZM12.4581 16.5432L15.1388 14.6031C15.3506 14.4499 15.3986 14.1529 15.2462 13.94C15.0939 13.7271 14.7987 13.6787 14.5868 13.832L12.4581 15.3726V11.3645L14.2198 10.0895C14.4316 9.93624 14.4797 9.63937 14.3272 9.42639C14.1749 9.21347 13.8797 9.16501 13.6678 9.31832L12.4581 10.1939V7.71724C12.4581 7.45482 12.2465 7.24218 11.9856 7.24218C11.7248 7.24218 11.5132 7.45482 11.5132 7.71724V12.977L9.41967 11.4618C9.20787 11.3085 8.91265 11.357 8.76024 11.5698C8.60778 11.7828 8.65592 12.0797 8.86767 12.2329L11.5132 14.1477V17.7954C8.33291 17.6088 5.64397 15.5516 4.52202 12.7043C4.51885 12.6963 4.51583 12.6884 4.51276 12.6805C4.45039 12.5207 4.39328 12.3584 4.34098 12.1939C4.33162 12.1646 4.32227 12.1353 4.31334 12.1059C4.30091 12.0652 4.28882 12.0243 4.27701 11.9834C4.26539 11.9431 4.25428 11.9026 4.24332 11.862C4.23439 11.829 4.22513 11.7962 4.21658 11.763C4.19787 11.6902 4.18016 11.6171 4.16348 11.5436C4.15852 11.522 4.15403 11.5001 4.14931 11.4784C4.13598 11.4173 4.12313 11.356 4.11118 11.2944C4.01329 10.7915 3.96137 10.2722 3.96137 9.74089C3.96137 5.29174 7.56109 1.67206 11.9856 1.67206C16.4102 1.67206 20.01 5.29174 20.01 9.74089C20.01 10.2783 19.957 10.8034 19.8568 11.3117C19.8477 11.3582 19.8379 11.4044 19.8281 11.4507C19.8206 11.4853 19.8134 11.5202 19.8055 11.5546C19.7941 11.6041 19.782 11.6533 19.7697 11.7024C19.7534 11.7676 19.7365 11.8324 19.7186 11.8969C19.712 11.9208 19.7055 11.9448 19.6987 11.9687C19.684 12.0199 19.6689 12.071 19.6533 12.1219C19.6488 12.1365 19.6441 12.151 19.6396 12.1656C18.6588 15.2891 15.8357 17.5972 12.4581 17.7954V16.5432ZM5.07647 19.9052C2.79827 19.9052 0.944882 18.0415 0.944882 15.7506C0.944882 14.1278 1.87266 12.6788 3.30066 11.9979C3.3085 12.0284 3.31729 12.0585 3.32537 12.0888C3.33709 12.1323 3.34857 12.1759 3.3609 12.2191C3.37408 12.2655 3.38806 12.3115 3.40195 12.3576C3.41055 12.3862 3.41906 12.4148 3.42794 12.4433C3.44386 12.4941 3.46039 12.5447 3.47712 12.5952C3.4843 12.6168 3.49148 12.6383 3.49876 12.6597C3.5178 12.7154 3.53721 12.7709 3.55724 12.8262C3.5614 12.8377 3.56565 12.8491 3.56991 12.8606C4.4246 15.1889 6.21369 17.0868 8.51324 18.0584C7.75191 19.2092 6.47712 19.9052 5.07647 19.9052ZM23.9716 15.7506C23.9716 13.6762 22.7374 11.8329 20.861 11.043C20.9224 10.6177 20.9548 10.1831 20.9548 9.74089C20.9548 4.76784 16.9313 0.721924 11.9856 0.721924C7.04003 0.721924 3.01649 4.76784 3.01649 9.74089C3.01649 10.1831 3.0489 10.6177 3.11036 11.0431C1.23411 11.833 0 13.6763 0 15.7506C0 18.4052 2.02554 20.5926 4.60403 20.833V22.8585C4.60403 23.1209 4.81554 23.3336 5.07647 23.3336C5.33735 23.3336 5.54891 23.1209 5.54891 22.8585V20.833C7.15994 20.6846 8.58969 19.783 9.42506 18.3848C10.0922 18.585 10.7914 18.7096 11.5132 18.7474V22.8585C11.5132 23.1209 11.7248 23.3336 11.9856 23.3336C12.2465 23.3336 12.4581 23.1209 12.4581 22.8585V18.7475C13.1799 18.7096 13.8793 18.585 14.5465 18.3848C15.3819 19.783 16.8116 20.6846 18.4227 20.833V22.8585C18.4227 23.1209 18.6343 23.3336 18.8951 23.3336C19.156 23.3336 19.3676 23.1209 19.3676 22.8585V20.833C21.946 20.5926 23.9716 18.4052 23.9716 15.7506Z" fill="white"/>
</svg>
