<svg width="133" height="101" viewBox="0 0 133 101" fill="none" xmlns="http://www.w3.org/2000/svg">
<path d="M83.9859 11.5708L86.4024 17.4838H83.3055L82.3308 15.1942L83.9859 11.5708Z" fill="#462D19"/>
<path d="M66.4034 100.528C102.661 100.528 132.054 93.635 132.054 85.1323C132.054 76.6297 102.661 69.7369 66.4034 69.7369C30.1457 69.7369 0.75293 76.6297 0.75293 85.1323C0.75293 93.635 30.1457 100.528 66.4034 100.528Z" fill="#462D19"/>
<path d="M104.495 25.8242H27.4802V83.0615H104.495V25.8242Z" fill="#8E6149"/>
<path d="M95.2124 77.4078C95.0342 74.0679 94.3025 66.065 91.3325 58.2296C89.1671 52.5137 86.2457 48.0074 82.6547 44.8349C78.2591 40.955 72.9482 39.0677 66.4196 39.0677C66.4142 39.0677 66.4088 39.0677 66.4034 39.0677C59.8073 39.0704 54.4451 40.9631 50.009 44.8565C46.391 48.0317 43.4507 52.5353 41.2691 58.2485C38.3504 65.8976 37.5809 73.7033 37.3784 77.1728" fill="#462D19"/>
<path d="M81.8854 77.4076C81.8854 77.4076 90.898 69.664 78.7831 49.3897C78.7831 49.3897 79.8496 60.3058 76.7986 60.0088C73.7476 59.7118 79.18 49.9594 69.9514 45.1966C69.9514 45.1966 70.621 49.3654 67.7185 48.9928C64.816 48.6202 63.6982 44.1544 63.8467 42.8152C63.8467 42.8152 58.3387 49.1413 60.3475 54.8734C62.3563 60.6055 56.0302 55.3189 56.5513 50.7802C56.5513 50.7802 53.3518 54.8734 54.691 60.9025C56.0302 66.9316 50.8948 61.1266 52.6822 57.6274C52.6822 57.6274 44.8657 63.4675 48.4405 77.4076H81.8854Z" fill="#F5BC4C"/>
<path d="M54.68 77.3538C54.0914 73.8438 54.4721 71.1951 55.1228 69.2943C55.9841 70.431 56.894 70.6902 57.5447 70.6902C58.3007 70.6902 59.0054 70.3311 59.4806 69.7047C60.3365 68.5761 60.1637 67.0533 59.8829 65.7141C59.8046 65.3442 59.7533 64.9851 59.7209 64.6422C60.4769 65.3307 61.2464 65.6709 62.0213 65.6817C67.5023 65.7519 67.4888 57.7923 67.5023 57.7761C69.26 59.2287 70.6073 60.117 71.8898 65.1714C72.2705 66.6753 73.2128 67.677 74.5736 67.8174C74.6762 67.8282 74.7788 67.8336 74.8814 67.8336C77.6489 67.8822 77.8622 64.005 78.0485 63.5919C78.9098 66.2595 79.2095 71.106 78.899 73.6764C78.6776 75.5205 78.1025 76.7112 77.6921 77.3565H54.68V77.3538Z" fill="#DC602C"/>
<path d="M109.239 17.7296H23.2898V25.9592H109.239V17.7296Z" fill="#8E6149"/>
<path d="M40.7587 59.2528L33.3337 55.4701C35.9932 48.415 39.7057 42.7477 44.3659 38.6248C50.3356 33.3463 57.7471 30.6679 66.3979 30.6625C66.4033 30.6625 66.4114 30.6625 66.4168 30.6625C75.0136 30.6625 82.3819 33.3409 88.3138 38.6194C92.9443 42.7396 96.6325 48.4096 99.2731 55.4674L91.8562 59.6902" stroke="#462D19" stroke-width="0.572292" stroke-miterlimit="10"/>
<path d="M95.2689 47.1056L88.2705 51.782" stroke="#462D19" stroke-width="0.572292" stroke-miterlimit="10"/>
<path d="M83.3945 45.7826L89.456 39.9614" stroke="#462D19" stroke-width="0.572292" stroke-miterlimit="10"/>
<path d="M77.2627 41.4141L82.1308 34.467" stroke="#462D19" stroke-width="0.572292" stroke-miterlimit="10"/>
<path d="M70.3293 39.3403L72.1896 31.1431" stroke="#462D19" stroke-width="0.572292" stroke-miterlimit="10"/>
<path d="M37.5674 47.1056L44.5658 51.782" stroke="#462D19" stroke-width="0.572292" stroke-miterlimit="10"/>
<path d="M49.4446 45.7826L43.3804 39.9614" stroke="#462D19" stroke-width="0.572292" stroke-miterlimit="10"/>
<path d="M55.5737 41.4141L50.7056 34.467" stroke="#462D19" stroke-width="0.572292" stroke-miterlimit="10"/>
<path d="M62.5073 39.3403L60.647 31.1431" stroke="#462D19" stroke-width="0.572292" stroke-miterlimit="10"/>
<path d="M109.239 22.873H23.2898V26.3911H109.239V22.873Z" fill="#462D19"/>
<path d="M73.0887 1.70247L70.3806 14.946C70.1187 16.2339 70.9125 17.4813 71.9925 17.4813H82.7412C83.5107 17.4813 84.1803 16.8333 84.3585 15.9153L86.9289 2.67177C87.1773 1.38927 86.3862 0.160767 85.3116 0.160767H74.7006C73.9365 0.160767 73.2723 0.795266 73.0887 1.70247Z" fill="#DC602C"/>
<path d="M72.465 14.163L74.7303 3.07684C74.8059 2.70694 75.0759 2.45044 75.3864 2.45044H84.1965C84.6339 2.45044 84.9552 2.94994 84.8553 3.47104L82.7034 14.5572C82.6305 14.9298 82.3578 15.1944 82.0446 15.1944H73.1211C72.681 15.1944 72.357 14.6868 72.465 14.163Z" fill="#462D19"/>
<path d="M73.3882 15.1944C73.3882 15.1944 75.2755 9.42717 78.4858 9.50817C81.6961 9.58917 82.3279 15.1944 82.3279 15.1944H73.3882Z" fill="white"/>
<path d="M78.5832 10.661C80.1101 10.661 81.348 9.65042 81.348 8.40381C81.348 7.15719 80.1101 6.14661 78.5832 6.14661C77.0562 6.14661 75.8184 7.15719 75.8184 8.40381C75.8184 9.65042 77.0562 10.661 78.5832 10.661Z" fill="white"/>
<path d="M77.3625 6.4355C77.3625 6.4355 76.0908 5.33121 75.5967 5.81451C75.1026 6.29781 76.1691 7.4939 76.1691 7.4939" fill="white"/>
<path d="M79.9197 6.4355C79.9197 6.4355 81.1914 5.33121 81.6855 5.81451C82.1823 6.29781 81.1131 7.4939 81.1131 7.4939" fill="white"/>
<path d="M101.328 93.8858C87.423 98.2301 87.6714 90.5324 91.0221 88.7963C94.3755 87.0575 105.3 89.3363 103.996 85.6508H76.9011C74.6223 85.6508 72.7566 83.7905 72.8052 81.5117C72.8376 80.1374 72.6783 78.5282 72.1086 76.8596C72.1086 76.8596 67.9884 71.7863 72.8079 67.9523C72.8079 67.9523 71.9493 64.0454 72.8079 63.9779C73.6665 63.9104 76.3233 67.0424 76.3233 67.0424L79.3905 67.1099C79.3905 67.1099 81.6396 63.6998 82.7304 63.9752C83.8212 64.2479 83.3433 72.8366 83.3433 72.8366C83.3433 72.8366 85.8651 68.6786 94.2459 69.5642C100.766 70.2527 104.112 75.3584 104.444 80.8934L104.471 80.6018C104.474 80.6045 115.233 89.5415 101.328 93.8858Z" fill="white"/>
<path d="M75.157 82.4512H77.8975C79.1827 82.4512 80.233 83.3557 80.233 84.4627C80.233 84.8785 80.0845 85.2646 79.8334 85.5859" stroke="#462D19" stroke-width="0.765747" stroke-miterlimit="10" stroke-linecap="round"/>
<path d="M86.0001 82.4512H83.2596C81.9744 82.4512 80.9241 83.3557 80.9241 84.4627C80.9241 84.8785 81.0726 85.2646 81.3237 85.5859" stroke="#462D19" stroke-width="0.765747" stroke-miterlimit="10" stroke-linecap="round"/>
<path d="M89.5776 85.5833C89.5776 85.5833 87.4716 76.6301 95.6688 76.6301" stroke="#462D19" stroke-width="0.765747" stroke-miterlimit="10" stroke-linecap="round"/>
<path d="M71.2744 71.4352C71.2744 71.4352 71.4688 72.202 72.7243 72.2506C73.9798 72.2992 74.5738 71.4352 74.5738 71.4352" stroke="#462D19" stroke-width="0.765747" stroke-miterlimit="10" stroke-linecap="round"/>
<path d="M75.948 71.4352C75.948 71.4352 76.1424 72.202 77.3979 72.2506C78.6534 72.2992 79.2474 71.4352 79.2474 71.4352" stroke="#462D19" stroke-width="0.765747" stroke-miterlimit="10" stroke-linecap="round"/>
<path d="M41.6851 86.9172C41.6851 86.9172 42.7705 89.9385 46.3156 89.5497C49.8607 89.1609 50.3035 86.1315 55.6441 88.7667" stroke="#FCFCFF" stroke-width="0.572292" stroke-miterlimit="10" stroke-linecap="round"/>
<path d="M36.9007 89.5415C40.4795 89.5415 43.3807 86.6403 43.3807 83.0615C43.3807 79.4827 40.4795 76.5815 36.9007 76.5815C33.3219 76.5815 30.4207 79.4827 30.4207 83.0615C30.4207 86.6403 33.3219 89.5415 36.9007 89.5415Z" fill="#FCFCFF"/>
<path d="M31.7437 79.1357C31.7437 79.1357 30.202 86.0909 41.6824 87.4328" stroke="#462D19" stroke-width="0.572292" stroke-miterlimit="10" stroke-linecap="round"/>
<path d="M40.3891 88.5208C40.3891 88.5208 34.387 89.2849 30.5989 84.5815" stroke="#462D19" stroke-width="0.572292" stroke-miterlimit="10" stroke-linecap="round"/>
<path d="M36.123 76.6301C36.123 76.6301 30.9417 82.3298 36.9006 89.5442" stroke="#462D19" stroke-width="0.572292" stroke-miterlimit="10" stroke-linecap="round"/>
</svg>
