<svg width="26" height="25" viewBox="0 0 26 25" fill="none" xmlns="http://www.w3.org/2000/svg">
<path d="M23.3937 3.67998C21.5825 3.67998 20.2336 4.15274 19.2191 4.95508C18.4325 5.57712 17.8848 6.4012 17.3917 7.27787C16.9831 6.67761 16.5231 6.16594 15.9379 5.84845C15.1109 5.39983 14.133 5.23933 12.9978 5.23933C12.9289 5.23835 12.8605 5.25107 12.7966 5.27675C12.7326 5.30243 12.6744 5.34055 12.6254 5.38892C12.5763 5.43728 12.5374 5.49493 12.5108 5.55848C12.4842 5.62203 12.4705 5.69024 12.4705 5.75913C12.4705 5.82802 12.4842 5.89621 12.5108 5.95976C12.5374 6.02331 12.5763 6.08096 12.6254 6.12932C12.6744 6.17769 12.7326 6.21581 12.7966 6.24149C12.8605 6.26716 12.9289 6.27989 12.9978 6.2789C14.0329 6.2789 14.8253 6.42327 15.4424 6.75807C15.8859 6.99864 16.254 7.34402 16.5795 7.83825H15.3368C15.3206 7.83749 15.3044 7.83749 15.2881 7.83825C15.2199 7.84145 15.1529 7.85807 15.0911 7.88715C15.0292 7.91622 14.9737 7.95719 14.9277 8.00772C14.8817 8.05825 14.8461 8.11734 14.8229 8.18163C14.7998 8.24592 14.7895 8.31413 14.7927 8.38239C14.7959 8.45065 14.8125 8.51762 14.8416 8.57945C14.8707 8.64129 14.9116 8.69681 14.9622 8.74281C15.0127 8.78881 15.0718 8.82441 15.1361 8.84758C15.2004 8.87074 15.2686 8.88101 15.3368 8.87781H19.4952C19.5641 8.87878 19.6325 8.86606 19.6964 8.84037C19.7603 8.81469 19.8185 8.77656 19.8675 8.7282C19.9166 8.67983 19.9555 8.62221 19.9821 8.55867C20.0087 8.49512 20.0224 8.42691 20.0224 8.35803C20.0224 8.28915 20.0087 8.22096 19.9821 8.15741C19.9555 8.09387 19.9166 8.03623 19.8675 7.98787C19.8185 7.93951 19.7603 7.90137 19.6964 7.87569C19.6325 7.85 19.5641 7.83728 19.4952 7.83825H18.2282C18.6912 7.00569 19.2023 6.29608 19.8607 5.77536C20.6879 5.12121 21.7595 4.71956 23.3937 4.71956C23.4626 4.72053 23.531 4.70781 23.5949 4.68212C23.6588 4.65643 23.717 4.6183 23.766 4.56994C23.8151 4.52158 23.854 4.46394 23.8806 4.40039C23.9072 4.33685 23.9209 4.26866 23.9209 4.19978C23.9209 4.13089 23.9072 4.06269 23.8806 3.99914C23.854 3.9356 23.8151 3.87798 23.766 3.82961C23.717 3.78125 23.6588 3.7431 23.5949 3.71742C23.531 3.69173 23.4626 3.67901 23.3937 3.67998ZM9.5866 10.1773C8.34575 10.1773 7.40094 10.6001 6.7196 11.2331C6.03826 11.866 5.60723 12.6749 5.20082 13.4665C4.79441 14.2582 4.41552 15.0436 3.92569 15.6593C3.43587 16.2751 2.85683 16.7243 1.96021 16.9426C1.8256 16.9749 1.70933 17.0593 1.63699 17.1774C1.56466 17.2954 1.54217 17.4374 1.57447 17.572C1.60678 17.7066 1.69124 17.8229 1.80927 17.8952C1.92731 17.9676 2.06924 17.9901 2.20387 17.9578C3.33647 17.682 4.14702 17.0437 4.73788 16.301C5.32873 15.5582 5.72189 14.7184 6.11858 13.9457C6.51528 13.173 6.91106 12.4751 7.4262 11.9965C7.94134 11.518 8.56662 11.2168 9.5866 11.2168C10.435 11.2168 11.3134 11.5402 11.8932 12.0696C10.7778 12.6443 10.061 13.7116 10.147 14.8553H10.1389C10.1389 14.861 10.1388 14.866 10.1389 14.8714C10.1396 14.8798 10.1381 14.8876 10.1389 14.8959H10.147C10.1669 16.0146 10.9344 16.7913 11.812 17.1943C12.5093 17.5146 13.2878 17.6657 13.9967 17.706C13.9448 17.7798 13.8892 17.8468 13.8343 17.9171C13.3467 18.542 12.756 19.0275 11.8201 19.2897C11.7497 19.3033 11.6828 19.3313 11.6237 19.372C11.5646 19.4126 11.5146 19.4651 11.4768 19.5261C11.439 19.587 11.4142 19.6552 11.404 19.7262C11.3938 19.7972 11.3984 19.8695 11.4175 19.9386C11.4366 20.0078 11.4698 20.0722 11.515 20.1279C11.5602 20.1836 11.6165 20.2293 11.6803 20.2622C11.744 20.295 11.8139 20.3144 11.8855 20.3189C11.9571 20.3235 12.0288 20.3132 12.0962 20.2887C13.2523 19.9647 14.0678 19.3107 14.6546 18.5587C15.2415 17.8067 15.6201 16.964 16.0028 16.2035C16.3856 15.443 16.7661 14.7742 17.278 14.3111C17.7898 13.8481 18.4291 13.5558 19.4952 13.5558C19.4979 13.5559 19.5006 13.5559 19.5033 13.5558C20.2916 13.5444 21.19 13.8836 21.7775 14.4248C20.6031 15.0722 20.011 16.3341 20.2018 17.5436C20.4292 18.985 21.7471 20.2887 23.9135 20.2887C23.9823 20.2895 24.0506 20.2767 24.1145 20.251C24.1783 20.2253 24.2364 20.1871 24.2854 20.1388C24.3344 20.0904 24.3732 20.0328 24.3998 19.9693C24.4263 19.9058 24.44 19.8377 24.44 19.7688C24.44 19.7 24.4263 19.6319 24.3998 19.5684C24.3732 19.5049 24.3344 19.4473 24.2854 19.3989C24.2364 19.3506 24.1783 19.3124 24.1145 19.2867C24.0506 19.261 23.9823 19.2482 23.9135 19.2491C22.1362 19.2491 21.3767 18.3413 21.2252 17.3811C21.0737 16.4209 21.5596 15.4012 22.7439 15.0908C22.8225 15.0707 22.8952 15.0326 22.9563 14.9794C23.0175 14.9263 23.0653 14.8595 23.0961 14.7846C23.1269 14.7096 23.1397 14.6285 23.1336 14.5477C23.1274 14.4669 23.1025 14.3887 23.0607 14.3193C22.3136 13.0992 20.8293 12.4994 19.4952 12.5163C19.4926 12.5163 19.4897 12.5162 19.4871 12.5163C18.2184 12.5189 17.2723 12.9202 16.5876 13.5396C15.9014 14.1604 15.4707 14.9583 15.077 15.7405C14.9181 16.0561 14.7646 16.3718 14.6059 16.6745H14.5572C14.5544 16.6745 14.5517 16.6745 14.549 16.6745C13.842 16.6907 12.9163 16.5617 12.2424 16.2522C11.5686 15.9428 11.1785 15.555 11.1785 14.8553C11.1792 14.8391 11.1792 14.8228 11.1785 14.8066C11.1049 14.0051 11.7527 13.0451 12.8678 12.7518C12.9463 12.7317 13.019 12.6936 13.0802 12.6404C13.1413 12.5872 13.1892 12.5205 13.22 12.4456C13.2507 12.3706 13.2636 12.2895 13.2574 12.2087C13.2513 12.1279 13.2263 12.0497 13.1846 11.9802C12.4396 10.7596 10.9649 10.1773 9.5866 10.1773V10.1773Z" fill="white"/>
</svg>
