<svg width="115" height="82" viewBox="0 0 115 82" fill="none" xmlns="http://www.w3.org/2000/svg">
<path d="M69.5749 43.2868C81.3696 43.2868 90.9311 33.7253 90.9311 21.9306C90.9311 10.1359 81.3696 0.574463 69.5749 0.574463C57.7802 0.574463 48.2188 10.1359 48.2188 21.9306C48.2188 33.7253 57.7802 43.2868 69.5749 43.2868Z" fill="#FCFCFF"/>
<path d="M99.7298 49.8705C108.002 49.8705 114.708 43.1645 114.708 34.8922C114.708 26.6199 108.002 19.9138 99.7298 19.9138C91.4575 19.9138 84.7515 26.6199 84.7515 34.8922C84.7515 43.1645 91.4575 49.8705 99.7298 49.8705Z" fill="#FCFCFF"/>
<path d="M40.7418 56.3624C52.5995 56.3624 62.212 46.7499 62.212 34.8922C62.212 23.0344 52.5995 13.4219 40.7418 13.4219C28.8841 13.4219 19.2715 23.0344 19.2715 34.8922C19.2715 46.7499 28.8841 56.3624 40.7418 56.3624Z" fill="#FCFCFF"/>
<path d="M74.6228 58.8159C86.2133 58.8159 95.6093 49.4199 95.6093 37.8293C95.6093 26.2388 86.2133 16.8428 74.6228 16.8428C63.0322 16.8428 53.6362 26.2388 53.6362 37.8293C53.6362 49.4199 63.0322 58.8159 74.6228 58.8159Z" fill="#FCFCFF"/>
<path d="M12.6334 53.227C19.6028 53.227 25.2526 47.5771 25.2526 40.6077C25.2526 33.6383 19.6028 27.9885 12.6334 27.9885C5.66397 27.9885 0.0141602 33.6383 0.0141602 40.6077C0.0141602 47.5771 5.66397 53.227 12.6334 53.227Z" fill="#FCFCFF"/>
<path d="M82.9854 33.0938C81.4474 37.2935 74.6007 39.7147 72.455 45.5517C70.9194 49.7267 72.9164 52.9665 75.2556 53.8223C77.5949 54.6781 81.4747 53.6313 82.9978 49.4042C85.0841 43.6093 81.4524 37.296 82.9854 33.0938Z" fill="#A1A1A1"/>
<path d="M84.9869 60.4531C83.4489 64.6529 76.6022 67.0741 74.4564 72.9111C72.9209 77.0861 74.9178 80.3258 77.2571 81.1817C79.5964 82.0375 83.4762 80.9907 84.9993 76.7636C87.088 70.9687 83.4563 64.6554 84.9869 60.4531Z" fill="#454545"/>
<path d="M58.8336 53.8025C57.2956 58.0023 50.4489 60.4234 48.3031 66.2605C46.7676 70.4354 48.7645 73.6752 51.1038 74.531C53.4455 75.3869 57.3228 74.34 58.846 70.113C60.9347 64.3181 57.303 58.0048 58.8336 53.8025Z" fill="#454545"/>
<path d="M101.71 54.1001L97.5249 66.0694" stroke="#454545" stroke-width="0.695781" stroke-miterlimit="10" stroke-linecap="round"/>
<path d="M67.124 65.6699L64.1348 74.2159" stroke="#454545" stroke-width="0.695781" stroke-miterlimit="10" stroke-linecap="round"/>
<path d="M23.6596 55.2263L20.6431 63.8566" stroke="#454545" stroke-width="0.695781" stroke-miterlimit="10" stroke-linecap="round"/>
<path d="M19.2368 68.23L16.2178 76.8627" stroke="#454545" stroke-width="0.695781" stroke-miterlimit="10" stroke-linecap="round"/>
<path d="M39.576 69.4878L35.3911 81.4596" stroke="#454545" stroke-width="0.695781" stroke-miterlimit="10" stroke-linecap="round"/>
<path d="M90.9133 22.7864C90.9133 22.7864 86.5572 25.7161 86.0016 30.283C86.0016 30.283 89.663 16.8452 78.4107 7.05889C71.1026 0.705867 61.1675 2.2935 61.1675 2.2935C61.1675 2.2935 71.2713 -2.68522 81.6504 4.31526C81.648 4.31526 91.3425 10.1821 90.9133 22.7864Z" fill="#A1A1A1"/>
<path d="M62.8077 45.197C67.8372 45.197 71.9143 41.1199 71.9143 36.0905C71.9143 31.061 67.8372 26.9839 62.8077 26.9839C57.7783 26.9839 53.7012 31.061 53.7012 36.0905C53.7012 41.1199 57.7783 45.197 62.8077 45.197Z" fill="#A1A1A1"/>
<path d="M58.3224 46.9087C63.3518 46.9087 67.429 42.8315 67.429 37.8021C67.429 32.7727 63.3518 28.6956 58.3224 28.6956C53.293 28.6956 49.2158 32.7727 49.2158 37.8021C49.2158 42.8315 53.293 46.9087 58.3224 46.9087Z" fill="#FCFCFF"/>
<path d="M57.4343 28.7377C57.4343 28.7377 49.9153 13.6154 35.9863 13.9503C35.9863 13.9503 42.7263 12.0104 49.3001 15.1981C55.8739 18.3833 59.652 22.9626 61.1652 27.1327L57.4343 28.7377Z" fill="#A1A1A1"/>
<path d="M46.708 42.4881H55.827L32.7988 66.0694L42.3271 42.4881H34.8479L56.5885 18.9067L46.708 42.4881Z" fill="#454545"/>
<path d="M97.9191 43.597C97.9191 43.597 98.3135 38.6853 96.3811 36.093C94.7364 33.8852 92.9205 32.9897 90.1074 32.2231C90.1074 32.2231 94.7537 31.3599 97.5991 34.9072C99.0751 36.7429 99.6184 40.3101 97.9191 43.597Z" fill="#A1A1A1"/>
<path d="M13.8266 30.757C24.2008 33.2154 24.883 43.4035 24.883 43.4035C26.5525 36.6362 22.4196 29.797 15.6524 28.1275C9.87982 26.7036 4.05766 29.5018 1.43311 34.555C4.44713 31.2184 9.14305 29.6482 13.8266 30.757Z" fill="#A1A1A1"/>
</svg>
