<svg width="116" height="82" viewBox="0 0 116 82" fill="none" xmlns="http://www.w3.org/2000/svg">
<path d="M69.906 43.2868C81.7007 43.2868 91.2621 33.7253 91.2621 21.9306C91.2621 10.1359 81.7007 0.574463 69.906 0.574463C58.1113 0.574463 48.5498 10.1359 48.5498 21.9306C48.5498 33.7253 58.1113 43.2868 69.906 43.2868Z" fill="#081166"/>
<path d="M100.061 49.8706C108.333 49.8706 115.039 43.1646 115.039 34.8923C115.039 26.62 108.333 19.9139 100.061 19.9139C91.7888 19.9139 85.0828 26.62 85.0828 34.8923C85.0828 43.1646 91.7888 49.8706 100.061 49.8706Z" fill="#081166"/>
<path d="M41.0733 56.3624C52.931 56.3624 62.5436 46.7499 62.5436 34.8922C62.5436 23.0344 52.931 13.4219 41.0733 13.4219C29.2156 13.4219 19.603 23.0344 19.603 34.8922C19.603 46.7499 29.2156 56.3624 41.0733 56.3624Z" fill="#081166"/>
<path d="M74.9543 58.8159C86.5449 58.8159 95.9409 49.4199 95.9409 37.8293C95.9409 26.2388 86.5449 16.8428 74.9543 16.8428C63.3638 16.8428 53.9678 26.2388 53.9678 37.8293C53.9678 49.4199 63.3638 58.8159 74.9543 58.8159Z" fill="#081166"/>
<path d="M12.9647 53.227C19.9341 53.227 25.5839 47.5771 25.5839 40.6077C25.5839 33.6383 19.9341 27.9885 12.9647 27.9885C5.99527 27.9885 0.345459 33.6383 0.345459 40.6077C0.345459 47.5771 5.99527 53.227 12.9647 53.227Z" fill="#081166"/>
<path d="M83.3165 33.0938C81.7785 37.2935 74.9318 39.7147 72.786 45.5517C71.2505 49.7267 73.2474 52.9665 75.5867 53.8223C77.926 54.6781 81.8058 53.6313 83.3289 49.4042C85.4151 43.6093 81.7834 37.296 83.3165 33.0938Z" fill="#9FA0EA"/>
<path d="M85.3184 60.4531C83.7804 64.6529 76.9338 67.0741 74.788 72.9111C73.2524 77.0861 75.2494 80.3258 77.5887 81.1817C79.9279 82.0375 83.8077 80.9907 85.3308 76.7636C87.4196 70.9687 83.7879 64.6554 85.3184 60.4531Z" fill="#B2B3EE"/>
<path d="M59.1646 53.8025C57.6266 58.0023 50.7799 60.4234 48.6342 66.2605C47.0986 70.4354 49.0956 73.6752 51.4348 74.531C53.7766 75.3869 57.6539 74.34 59.177 70.113C61.2658 64.3181 57.6341 58.0048 59.1646 53.8025Z" fill="#B2B3EE"/>
<path d="M102.041 54.1001L97.856 66.0694" stroke="#4246A7" stroke-width="0.695781" stroke-miterlimit="10" stroke-linecap="round"/>
<path d="M67.455 65.6699L64.4658 74.2159" stroke="#4246A7" stroke-width="0.695781" stroke-miterlimit="10" stroke-linecap="round"/>
<path d="M23.9911 55.2263L20.9746 63.8566" stroke="#4246A7" stroke-width="0.695781" stroke-miterlimit="10" stroke-linecap="round"/>
<path d="M19.5683 68.2301L16.5493 76.8629" stroke="#4246A7" stroke-width="0.695781" stroke-miterlimit="10" stroke-linecap="round"/>
<path d="M39.9073 69.4878L35.7224 81.4596" stroke="#4246A7" stroke-width="0.695781" stroke-miterlimit="10" stroke-linecap="round"/>
<path d="M91.2448 22.7865C91.2448 22.7865 86.8888 25.7162 86.3331 30.2831C86.3331 30.2831 89.9946 16.8453 78.7422 7.05901C71.4341 0.705989 61.499 2.29362 61.499 2.29362C61.499 2.29362 71.6028 -2.6851 81.982 4.31538C81.9795 4.31538 91.674 10.1822 91.2448 22.7865Z" fill="#4246A7"/>
<path d="M63.1388 45.1969C68.1682 45.1969 72.2454 41.1198 72.2454 36.0903C72.2454 31.0609 68.1682 26.9838 63.1388 26.9838C58.1094 26.9838 54.0322 31.0609 54.0322 36.0903C54.0322 41.1198 58.1094 45.1969 63.1388 45.1969Z" fill="#4246A7"/>
<path d="M58.6537 46.9086C63.6831 46.9086 67.7603 42.8314 67.7603 37.802C67.7603 32.7726 63.6831 28.6954 58.6537 28.6954C53.6243 28.6954 49.5471 32.7726 49.5471 37.802C49.5471 42.8314 53.6243 46.9086 58.6537 46.9086Z" fill="#081166"/>
<path d="M57.7658 28.7377C57.7658 28.7377 50.2469 13.6154 36.3179 13.9503C36.3179 13.9503 43.0579 12.0104 49.6317 15.1981C56.2055 18.3833 59.9835 22.9626 61.4968 27.1327L57.7658 28.7377Z" fill="#4246A7"/>
<path d="M47.0393 42.4881H56.1583L33.1301 66.0694L42.6584 42.4881H35.1792L56.9198 18.9067L47.0393 42.4881Z" fill="#B2B3EE"/>
<path d="M98.2501 43.5969C98.2501 43.5969 98.6446 38.6852 96.7121 36.0929C95.0674 33.8851 93.2516 32.9895 90.4385 32.223C90.4385 32.223 95.0848 31.3597 97.9301 34.9071C99.4061 36.7428 99.9494 40.31 98.2501 43.5969Z" fill="#4246A7"/>
<path d="M14.1579 30.757C24.5321 33.2154 25.2143 43.4035 25.2143 43.4035C26.8838 36.6362 22.7509 29.797 15.9837 28.1275C10.2111 26.7036 4.38896 29.5018 1.7644 34.555C4.77843 31.2184 9.47435 29.6482 14.1579 30.757Z" fill="#4246A7"/>
</svg>
