<svg width="157" height="120" viewBox="0 0 157 120" fill="none" xmlns="http://www.w3.org/2000/svg">
<path d="M99.4476 13.9167L102.31 20.92H98.6417L97.4873 18.2082L99.4476 13.9167Z" fill="#686868"/>
<path d="M78.6235 119.275C121.566 119.275 156.378 111.111 156.378 101.041C156.378 90.9707 121.566 82.8071 78.6235 82.8071C35.6807 82.8071 0.868652 90.9707 0.868652 101.041C0.868652 111.111 35.6807 119.275 78.6235 119.275Z" fill="#191919"/>
<path d="M123.738 30.7981H32.5239V98.5885H123.738V30.7981Z" fill="#A1A1A1"/>
<path d="M112.744 91.8923C112.533 87.9366 111.667 78.4583 108.149 69.1783C105.584 62.4085 102.124 57.0714 97.8712 53.3139C92.6651 48.7187 86.375 46.4834 78.6427 46.4834C78.6363 46.4834 78.63 46.4834 78.6236 46.4834C70.8113 46.4866 64.4604 48.7283 59.2064 53.3395C54.9214 57.1001 51.439 62.4341 48.8551 69.2007C45.3983 78.2601 44.4869 87.5049 44.2471 91.6141" fill="#191919"/>
<path d="M96.9597 91.8923C96.9597 91.8923 107.634 82.7209 93.2854 58.7085C93.2854 58.7085 94.5485 71.6373 90.935 71.2855C87.3215 70.9338 93.7555 59.3833 82.8254 53.7423C82.8254 53.7423 83.6184 58.6798 80.1808 58.2385C76.7431 57.7972 75.4192 52.508 75.5951 50.9219C75.5951 50.9219 69.0716 58.4143 71.4507 65.2033C73.8299 71.9923 66.3374 65.7309 66.9546 60.3554C66.9546 60.3554 63.1652 65.2033 64.7513 72.344C66.3374 79.4847 60.2552 72.6094 62.3722 68.4651C62.3722 68.4651 53.1145 75.3819 57.3484 91.8923H96.9597Z" fill="#D1D1D1"/>
<path d="M64.7387 91.8282C64.0416 87.6711 64.4925 84.534 65.2631 82.2827C66.2832 83.629 67.3609 83.936 68.1316 83.936C69.0269 83.936 69.8616 83.5107 70.4244 82.7688C71.4381 81.4321 71.2334 79.6286 70.9009 78.0424C70.8081 77.6043 70.7474 77.179 70.709 76.7729C71.6044 77.5883 72.5158 77.9913 73.4335 78.0041C79.9251 78.0872 79.9091 68.6601 79.9251 68.6409C82.0069 70.3613 83.6026 71.4134 85.1215 77.3997C85.5724 79.1809 86.6885 80.3672 88.3002 80.5335C88.4217 80.5463 88.5432 80.5527 88.6647 80.5527C91.9425 80.6103 92.1951 76.0182 92.4158 75.529C93.4359 78.6884 93.7908 84.4285 93.4231 87.4728C93.1608 89.6569 92.4797 91.0671 91.9936 91.8314H64.7387V91.8282Z" fill="#7A7A7A"/>
<path d="M129.357 21.2109H27.561V30.9579H129.357V21.2109Z" fill="#A1A1A1"/>
<path d="M48.2505 70.3902L39.4565 65.9101C42.6064 57.5542 47.0034 50.842 52.5228 45.9589C59.5932 39.7072 68.3712 36.535 78.617 36.5286C78.6234 36.5286 78.6329 36.5286 78.6393 36.5286C88.8212 36.5286 97.548 39.7008 104.574 45.9525C110.058 50.8324 114.426 57.5478 117.554 65.9069L108.769 70.9082" stroke="#191919" stroke-width="0.677808" stroke-miterlimit="10"/>
<path d="M112.811 56.0032L104.522 61.5418" stroke="#191919" stroke-width="0.677808" stroke-miterlimit="10"/>
<path d="M98.7471 54.4362L105.926 47.5417" stroke="#191919" stroke-width="0.677808" stroke-miterlimit="10"/>
<path d="M91.4849 49.2622L97.2505 41.0342" stroke="#191919" stroke-width="0.677808" stroke-miterlimit="10"/>
<path d="M83.2729 46.8062L85.4762 37.0977" stroke="#191919" stroke-width="0.677808" stroke-miterlimit="10"/>
<path d="M44.4707 56.0032L52.7594 61.5418" stroke="#191919" stroke-width="0.677808" stroke-miterlimit="10"/>
<path d="M58.5378 54.4362L51.3555 47.5417" stroke="#191919" stroke-width="0.677808" stroke-miterlimit="10"/>
<path d="M65.7969 49.2622L60.0312 41.0342" stroke="#191919" stroke-width="0.677808" stroke-miterlimit="10"/>
<path d="M74.009 46.8062L71.8057 37.0977" stroke="#191919" stroke-width="0.677808" stroke-miterlimit="10"/>
<path d="M129.357 27.3027H27.561V31.4695H129.357V27.3027Z" fill="#454545"/>
<path d="M86.5414 2.22878L83.334 17.9141C83.0238 19.4394 83.964 20.9168 85.2431 20.9168H97.9736C98.885 20.9168 99.678 20.1493 99.8891 19.0621L102.933 3.3768C103.228 1.85784 102.291 0.402832 101.018 0.402832H88.4505C87.5455 0.402832 86.7589 1.15432 86.5414 2.22878Z" fill="#7A7A7A"/>
<path d="M85.8026 16.9866L88.4856 3.85639C88.5751 3.41829 88.8949 3.1145 89.2626 3.1145H99.6971C100.215 3.1145 100.596 3.7061 100.477 4.32327L97.9287 17.4535C97.8424 17.8948 97.5194 18.2082 97.1484 18.2082H86.5797C86.0584 18.2082 85.6747 17.607 85.8026 16.9866Z" fill="#191919"/>
<path d="M86.8965 18.2083C86.8965 18.2083 89.1318 11.3777 92.934 11.4737C96.7362 11.5696 97.4844 18.2083 97.4844 18.2083H86.8965Z" fill="white"/>
<path d="M93.049 12.8392C94.8575 12.8392 96.3235 11.6423 96.3235 10.1658C96.3235 8.68934 94.8575 7.49243 93.049 7.49243C91.2405 7.49243 89.7744 8.68934 89.7744 10.1658C89.7744 11.6423 91.2405 12.8392 93.049 12.8392Z" fill="white"/>
<path d="M91.6035 7.83453C91.6035 7.83453 90.0974 6.52662 89.5122 7.09903C88.927 7.67144 90.1901 9.08807 90.1901 9.08807" fill="white"/>
<path d="M94.6318 7.83453C94.6318 7.83453 96.138 6.52662 96.7232 7.09903C97.3116 7.67144 96.0453 9.08807 96.0453 9.08807" fill="white"/>
<path d="M119.987 111.408C103.518 116.554 103.812 107.437 107.781 105.381C111.753 103.321 124.691 106.02 123.146 101.655H91.0564C88.3574 101.655 86.1478 99.4518 86.2053 96.7529C86.2437 95.1252 86.055 93.2193 85.3803 91.2431C85.3803 91.2431 80.5004 85.2344 86.2085 80.6935C86.2085 80.6935 85.1916 76.0662 86.2085 75.9863C87.2254 75.9063 90.3721 79.6158 90.3721 79.6158L94.0048 79.6958C94.0048 79.6958 96.6686 75.6569 97.9605 75.9831C99.2524 76.3061 98.6864 86.4783 98.6864 86.4783C98.6864 86.4783 101.673 81.5537 111.599 82.6026C119.322 83.418 123.284 89.4651 123.677 96.0206L123.709 95.6752C123.712 95.6784 136.456 106.263 119.987 111.408Z" fill="white"/>
<path d="M88.9907 97.8657H92.2365C93.7587 97.8657 95.0026 98.937 95.0026 100.248C95.0026 100.741 94.8267 101.198 94.5293 101.578" stroke="#191919" stroke-width="0.906932" stroke-miterlimit="10" stroke-linecap="round"/>
<path d="M101.833 97.8657H98.5874C97.0652 97.8657 95.8213 98.937 95.8213 100.248C95.8213 100.741 95.9972 101.198 96.2946 101.578" stroke="#191919" stroke-width="0.906932" stroke-miterlimit="10" stroke-linecap="round"/>
<path d="M106.07 101.575C106.07 101.575 103.576 90.9712 113.284 90.9712" stroke="#191919" stroke-width="0.906932" stroke-miterlimit="10" stroke-linecap="round"/>
<path d="M84.3921 84.8186C84.3921 84.8186 84.6223 85.7268 86.1093 85.7843C87.5963 85.8419 88.2998 84.8186 88.2998 84.8186" stroke="#191919" stroke-width="0.906932" stroke-miterlimit="10" stroke-linecap="round"/>
<path d="M89.9277 84.8186C89.9277 84.8186 90.158 85.7268 91.645 85.7843C93.1319 85.8419 93.8355 84.8186 93.8355 84.8186" stroke="#191919" stroke-width="0.906932" stroke-miterlimit="10" stroke-linecap="round"/>
<path d="M49.3477 103.155C49.3477 103.155 50.6332 106.733 54.8319 106.273C59.0306 105.812 59.5551 102.224 65.8803 105.346" stroke="#FCFCFF" stroke-width="0.677808" stroke-miterlimit="10" stroke-linecap="round"/>
<path d="M43.6811 106.263C47.9197 106.263 51.3559 102.827 51.3559 98.5886C51.3559 94.3499 47.9197 90.9138 43.6811 90.9138C39.4425 90.9138 36.0063 94.3499 36.0063 98.5886C36.0063 102.827 39.4425 106.263 43.6811 106.263Z" fill="#FCFCFF"/>
<path d="M37.5731 93.939C37.5731 93.939 35.7471 102.177 49.3442 103.766" stroke="#191919" stroke-width="0.677808" stroke-miterlimit="10" stroke-linecap="round"/>
<path d="M47.8126 105.054C47.8126 105.054 40.7038 105.959 36.2173 100.389" stroke="#191919" stroke-width="0.677808" stroke-miterlimit="10" stroke-linecap="round"/>
<path d="M42.7598 90.9714C42.7598 90.9714 36.6232 97.722 43.6808 106.267" stroke="#191919" stroke-width="0.677808" stroke-miterlimit="10" stroke-linecap="round"/>
</svg>
