<svg width="130" height="111" viewBox="0 0 130 111" fill="none" xmlns="http://www.w3.org/2000/svg">
<path d="M95.2163 72.5621C98.1575 73.0597 100.96 73.6268 103.606 74.2579C102.239 73.4322 100.687 72.7289 98.405 72.512C97.9824 72.4759 97.5348 72.4564 97.0595 72.4564C96.3895 72.4564 95.7806 72.4953 95.2163 72.5621Z" fill="#84C9C0"/>
<path d="M25.7329 74.3077C28.4406 73.6572 31.3152 73.0734 34.3342 72.5619C34.1813 72.5424 34.0257 72.5258 33.8644 72.5091C33.4419 72.4729 32.9943 72.4535 32.5189 72.4535C29.3275 72.4563 27.4009 73.2958 25.7329 74.3077Z" fill="#84C9C0"/>
<path d="M32.5218 72.4563C32.9972 72.4563 33.4448 72.4757 33.8673 72.5119C33.392 72.4674 32.886 72.4396 32.3411 72.4396C29.044 72.4396 27.0953 73.3347 25.3911 74.3939C25.5051 74.3661 25.6219 74.3383 25.7358 74.3105C27.4011 73.2958 29.3276 72.4563 32.5218 72.4563Z" fill="#84C9C0"/>
<path d="M97.0568 74.0327C97.5322 74.0327 97.9798 74.0521 98.4023 74.0883C97.9269 74.0438 97.421 74.016 96.8761 74.016C96.2284 74.016 95.6362 74.0549 95.083 74.1188C95.1275 74.1272 95.172 74.1327 95.2164 74.1411C95.7808 74.0716 96.3896 74.0327 97.0568 74.0327Z" fill="#84C9C0"/>
<path d="M113.011 77.7939C113.684 77.7939 114.295 77.755 114.865 77.6855C111.635 76.429 107.938 75.3003 103.859 74.3162C106.111 75.6895 107.89 77.3769 111.666 77.7383C112.088 77.7745 112.536 77.7939 113.011 77.7939Z" fill="#B9DFDA"/>
<path d="M48.4735 77.794C56.541 77.794 56.541 72.437 64.6086 72.437C65.1535 72.437 65.6594 72.462 66.1348 72.5092C72.3982 73.0291 73.2377 77.149 79.3982 77.7384C79.8208 77.7745 80.2683 77.794 80.7437 77.794C88.1608 77.794 88.764 73.2682 95.0857 72.5398C86.0507 71.0192 75.7369 70.1573 64.781 70.1573C53.7749 70.1573 43.4167 71.0275 34.3511 72.5593C40.178 73.2459 41.1343 77.1657 47.1307 77.7384C47.5505 77.7745 47.9981 77.794 48.4735 77.794Z" fill="#B9DFDA"/>
<path d="M16.2057 77.794C20.9762 77.794 22.925 75.923 25.388 74.3912C21.4015 75.3615 17.7875 76.479 14.6211 77.7133C14.7017 77.7217 14.7796 77.7328 14.863 77.7411C15.2855 77.7745 15.7303 77.794 16.2057 77.794Z" fill="#B9DFDA"/>
<path d="M32.5576 88.0271C40.6252 88.0271 40.6251 93.3842 48.6927 93.3842C56.7603 93.3842 56.7603 88.0271 64.8278 88.0271C72.8954 88.0271 72.8954 93.3842 80.963 93.3842C89.0305 93.3842 89.0305 88.0271 97.0981 88.0271C105.166 88.0271 105.166 93.3842 113.233 93.3842C121.098 93.3842 121.298 88.2968 128.779 88.041C127.953 85.8643 126.038 83.7932 123.205 81.8833C120.306 83.4679 118.482 85.7698 113.194 85.7698C105.127 85.7698 105.127 80.4127 97.0592 80.4127C88.9916 80.4127 88.9916 85.7698 80.924 85.7698C72.8565 85.7698 72.8565 80.4127 64.7889 80.4127C56.7214 80.4127 56.7214 85.7698 48.6538 85.7698C40.5862 85.7698 40.5862 80.4127 32.5187 80.4127C24.4511 80.4127 24.4511 85.7698 16.3835 85.7698C11.0876 85.7698 9.26953 83.4624 6.36165 81.875C3.53995 83.7765 1.62175 85.8365 0.790527 88.0021C8.23815 88.2746 8.57175 93.3842 16.4225 93.3842C24.4928 93.3842 24.4928 88.0271 32.5576 88.0271Z" fill="#B9DFDA"/>
<path d="M32.5214 80.4126C40.589 80.4126 40.589 85.7697 48.6566 85.7697C56.7241 85.7697 56.7241 80.4126 64.7917 80.4126C72.8592 80.4126 72.8592 85.7697 80.9268 85.7697C88.9944 85.7697 88.9944 80.4126 97.0619 80.4126C105.129 80.4126 105.129 85.7697 113.197 85.7697C118.485 85.7697 120.308 83.4706 123.208 81.8832C120.987 80.3848 118.204 78.9865 114.943 77.716C114.404 77.7772 113.828 77.8133 113.197 77.8133C112.652 77.8133 112.146 77.7883 111.671 77.741C107.729 77.413 105.933 75.6616 103.609 74.2577C100.965 73.6266 98.16 73.0595 95.2188 72.5619C88.9415 73.3069 88.3244 77.8105 80.9268 77.8105C80.3819 77.8105 79.876 77.7855 79.4006 77.7383C73.1372 77.2184 72.2977 73.0984 66.1372 72.5091C65.7146 72.4729 65.2671 72.4535 64.7917 72.4535C56.7241 72.4535 56.7241 77.8105 48.6566 77.8105C48.1117 77.8105 47.6057 77.7855 47.1303 77.7383C41.031 77.2323 40.0747 73.3097 34.3368 72.5619C31.3177 73.0734 28.4432 73.6572 25.7354 74.3077C23.1917 75.8562 21.2624 77.8105 16.3891 77.8105C15.8442 77.8105 15.341 77.7855 14.8656 77.7383C14.7822 77.7299 14.6988 77.7216 14.6182 77.7132C11.3656 78.9837 8.58563 80.3765 6.36719 81.8721C9.27507 83.4567 11.0932 85.7669 16.3891 85.7669C24.4539 85.7669 24.4539 80.4126 32.5214 80.4126Z" fill="#84C9C0"/>
<path d="M111.666 77.7412C112.141 77.7857 112.647 77.8135 113.192 77.8135C113.823 77.8135 114.398 77.7773 114.938 77.7162C114.913 77.7078 114.89 77.6967 114.865 77.6884C114.295 77.7579 113.684 77.7968 113.011 77.7968C112.536 77.794 112.088 77.7745 111.666 77.7412Z" fill="#84C9C0"/>
<path d="M79.395 77.7412C79.8704 77.7857 80.3764 77.8135 80.9212 77.8135C88.3216 77.8135 88.9388 73.3099 95.2132 72.5648C95.1687 72.5565 95.1243 72.5509 95.0798 72.5426C88.7581 73.271 88.1576 77.7968 80.7378 77.7968C80.2652 77.794 79.8204 77.7746 79.395 77.7412Z" fill="#84C9C0"/>
<path d="M14.8633 77.7412C15.3387 77.7857 15.8446 77.8135 16.3867 77.8135C21.2601 77.8135 23.1922 75.8591 25.7331 74.3107C25.6191 74.3385 25.5023 74.3663 25.3884 74.3941C22.9253 75.9231 20.9765 77.794 16.206 77.794C15.7306 77.794 15.2858 77.7745 14.8633 77.7412Z" fill="#84C9C0"/>
<path d="M48.4734 77.7939C47.9981 77.7939 47.5505 77.7745 47.1279 77.7383C47.6033 77.7828 48.1093 77.8106 48.6541 77.8106C56.7217 77.8106 56.7217 72.4536 64.7893 72.4536C65.2647 72.4536 65.7122 72.473 66.1348 72.5092C65.6594 72.4647 65.1534 72.4369 64.6086 72.4369C56.541 72.4397 56.541 77.7939 48.4734 77.7939Z" fill="#84C9C0"/>
<path d="M105.474 106.228C105.466 106.231 105.458 106.231 105.449 106.233C94.3543 109.08 80.1985 110.787 64.7779 110.787C49.5852 110.787 35.624 109.13 24.6069 106.361C24.6013 106.359 24.593 106.358 24.5874 106.356C26.6752 104.974 28.6907 103.542 32.8607 103.542C40.9255 103.542 40.9255 108.899 48.993 108.899C57.0606 108.899 57.0606 103.542 65.1281 103.542C73.1929 103.542 73.1929 108.899 81.2605 108.899C89.328 108.899 89.328 103.542 97.3956 103.542C101.435 103.542 103.453 104.885 105.474 106.228Z" fill="#84C9C0"/>
<path d="M11.894 88.0077C11.894 88.0077 24.9656 62.2315 64.7446 62.0453C104.524 61.8618 117.223 88.0077 117.223 88.0077C117.223 88.0077 103.962 97.3457 64.5584 97.3457C25.1546 97.3457 11.894 88.0077 11.894 88.0077Z" fill="#12322B"/>
<path d="M42.6826 79.6954L47.2863 9.6311H64.5529L67.1021 53.2715L86.4204 62.0452V79.6954C70.7022 84.8329 56.1239 84.8329 42.6826 79.6954Z" fill="#B9DFDA"/>
<path d="M86.4203 62.0452L77.5716 66.1929L57.1191 56.5991L67.1021 53.2715L86.4203 62.0452Z" fill="#326F62"/>
<path d="M77.5713 66.193V82.0696C80.785 81.3857 83.7846 80.6157 86.42 79.6955V62.0453L77.5713 66.193Z" fill="#5CA192"/>
<path d="M52.1846 48.7735C52.1846 48.7735 52.5126 41.4176 55.7958 41.4176C59.079 41.4176 59.4737 48.7735 59.4737 48.7735C57.183 49.5213 54.7366 49.4435 52.1846 48.7735Z" fill="#5CA192"/>
<path d="M52.1846 35.4684C52.1846 35.4684 52.5126 28.1125 55.7958 28.1125C59.079 28.1125 59.4737 35.4684 59.4737 35.4684C57.0468 36.2496 54.6143 36.2496 52.1846 35.4684Z" fill="#5CA192"/>
<path d="M67.0188 21.4712C59.535 23.4783 52.0763 23.4922 44.6426 21.4712V16.7758C52.0735 18.7023 59.5323 18.6884 67.0188 16.7758V21.4712Z" fill="#326F62"/>
<path d="M47.2861 9.63116C53.0407 11.3019 58.7981 11.3019 64.5527 9.63116L55.9208 0.949219L47.2861 9.63116Z" fill="#326F62"/>
<path d="M60.1741 81.8695C60.1741 81.8695 59.5514 69.2149 64.5582 69.1371C69.565 69.0592 69.2564 81.7277 69.2564 81.7277C69.2564 81.7277 64.1273 82.2309 60.1741 81.8695Z" fill="#5CA192"/>
<path d="M65.976 69.693C66.0622 69.693 66.1483 69.6958 66.2317 69.7014C65.7536 69.3456 65.2004 69.1482 64.5582 69.1565C59.5514 69.2343 60.1741 81.8889 60.1741 81.8889C60.63 81.9306 61.0999 81.9612 61.5752 81.9806C61.5224 79.74 61.5308 69.7625 65.976 69.693Z" fill="#12322B"/>
<path d="M55.8318 15.9056C56.4305 15.9056 56.916 15.4202 56.916 14.8214C56.916 14.2226 56.4305 13.7372 55.8318 13.7372C55.233 13.7372 54.7476 14.2226 54.7476 14.8214C54.7476 15.4202 55.233 15.9056 55.8318 15.9056Z" fill="#5CA192"/>
<path d="M129.238 90.4736C129.238 92.4697 128.321 94.3962 126.622 96.2171C126.594 96.2449 126.569 96.2727 126.544 96.3005C121.318 97.4236 120.328 101.357 113.411 101.357C105.344 101.357 105.344 96.0003 97.2763 96.0003C89.2087 96.0003 89.2087 101.357 81.1412 101.357C73.0736 101.357 73.0736 96.0003 65.0088 96.0003C56.9413 96.0003 56.9413 101.357 48.8737 101.357C40.8062 101.357 40.8062 96.0003 32.7386 96.0003C24.6738 96.0003 24.6738 101.357 16.6063 101.357C9.50614 101.357 8.48588 97.1373 2.84526 96.1254C2.82858 96.1031 2.80633 96.0837 2.78688 96.0642C1.6582 94.816 0.899255 93.5177 0.546195 92.1833C0.546195 92.1833 -0.0125853 89.7925 0.765815 88.0745C0.776935 88.0522 0.782495 88.0272 0.790835 88.0022C8.23846 88.2746 8.57484 93.3843 16.4256 93.3843C24.4931 93.3843 24.4931 88.0272 32.5579 88.0272C40.6255 88.0272 40.6255 93.3843 48.693 93.3843C56.7606 93.3843 56.7606 88.0272 64.8281 88.0272C72.8929 88.0272 72.8929 93.3843 80.9605 93.3843C89.028 93.3843 89.028 88.0272 97.0956 88.0272C105.163 88.0272 105.163 93.3843 113.231 93.3843C121.095 93.3843 121.296 88.2941 128.776 88.0383C128.782 88.0522 128.785 88.0634 128.79 88.0773C129.082 88.8612 129.238 89.6619 129.238 90.4736Z" fill="#84C9C0"/>
<path d="M48.9932 108.899C57.0608 108.899 57.0608 103.542 65.1283 103.542C73.1959 103.542 73.1959 108.899 81.2635 108.899C89.331 108.899 89.331 103.542 97.3986 103.542C101.438 103.542 103.456 104.885 105.477 106.228C115.357 103.69 122.802 100.248 126.547 96.3005C121.323 97.4236 120.331 101.357 113.414 101.357C105.347 101.357 105.347 96.0002 97.279 96.0002C89.2115 96.0002 89.2115 101.357 81.1439 101.357C73.0764 101.357 73.0764 96.0002 65.0088 96.0002C56.9412 96.0002 56.9412 101.357 48.8737 101.357C40.8061 101.357 40.8061 96.0002 32.7386 96.0002C24.671 96.0002 24.671 101.357 16.6034 101.357C9.50331 101.357 8.48306 97.1373 2.84521 96.1253C6.59544 100.212 14.3072 103.77 24.5876 106.356C26.6754 104.974 28.6881 103.542 32.8581 103.542C40.9257 103.542 40.9257 108.899 48.9932 108.899Z" fill="#B9DFDA"/>
</svg>
