<svg width="32" height="27" viewBox="0 0 32 27" fill="none" xmlns="http://www.w3.org/2000/svg">
<path d="M7.5841 21.2588C7.4881 21.2588 7.3921 21.2265 7.2961 21.162C7.0721 21.0008 7.0401 20.7105 7.2001 20.4848L8.4481 18.7434C8.6081 18.5177 8.8961 18.4854 9.1201 18.6467C9.3441 18.8079 9.3761 19.0981 9.2161 19.3239L8.0001 21.0653C7.9041 21.1943 7.7441 21.2588 7.5841 21.2588Z" fill="white"/>
<path d="M10.6559 21.7746C10.5599 21.7746 10.4639 21.7424 10.3679 21.6779C10.1439 21.5167 10.1119 21.2264 10.2719 21.0007L11.5199 19.2593C11.6799 19.0336 11.9679 19.0013 12.1919 19.1625C12.4159 19.3238 12.4479 19.614 12.2879 19.8398L11.0399 21.5811C10.9439 21.7101 10.8159 21.7746 10.6559 21.7746Z" fill="white"/>
<path d="M14.2399 21.7746C14.1439 21.7746 14.0479 21.7424 13.9519 21.6779C13.7279 21.5167 13.6959 21.2264 13.8559 21.0007L15.1039 19.2593C15.2639 19.0336 15.5519 19.0013 15.7759 19.1625C15.9999 19.3238 16.0319 19.614 15.8719 19.8398L14.6559 21.5811C14.5599 21.7101 14.3999 21.7746 14.2399 21.7746Z" fill="white"/>
<path d="M17.8561 21.7746C17.7601 21.7746 17.6641 21.7424 17.5681 21.6779C17.3441 21.5167 17.3121 21.2264 17.4721 21.0007L18.7201 19.2593C18.8801 19.0336 19.1681 19.0013 19.3921 19.1625C19.6161 19.3238 19.6481 19.614 19.4881 19.8398L18.2401 21.5811C18.1441 21.7101 18.0161 21.7746 17.8561 21.7746Z" fill="white"/>
<path d="M9.27997 18.163C8.60798 18.163 7.83997 18.163 7.10397 17.905C6.11197 17.5503 5.31197 16.7441 4.92797 15.7766C4.57597 14.8092 4.63997 13.7127 5.11997 12.8098C5.59997 11.8746 6.46397 11.1651 7.45597 10.9072C8.19197 10.7137 8.95997 10.7137 9.69597 10.7459C9.72797 9.48825 10.464 8.23057 11.68 7.52112C13.312 6.55368 15.488 6.71492 16.992 7.90809C17.92 8.6498 18.432 9.71399 18.464 10.7459C18.496 10.7459 18.528 10.7459 18.56 10.7459C19.552 10.7782 20.48 11.1974 21.152 11.8746C22.016 12.7453 22.4 14.0352 22.144 15.2284C21.888 16.4216 20.992 17.4858 19.872 17.8727C19.104 18.163 18.304 18.163 17.6 18.163H9.37597C9.34397 18.163 9.31198 18.163 9.27997 18.163ZM9.02398 11.6811C8.57598 11.6811 8.12797 11.7134 7.67997 11.8101C6.94397 12.0036 6.30397 12.5196 5.95197 13.1968C5.59997 13.874 5.53597 14.6802 5.82397 15.3896C6.11197 16.0991 6.68798 16.7118 7.42397 16.9698C8.03198 17.1955 8.70398 17.1955 9.34398 17.1955H17.568C18.24 17.1955 18.912 17.1955 19.52 16.9698C20.352 16.6796 20.992 15.9056 21.184 15.0349C21.376 14.1642 21.088 13.1968 20.448 12.5518C19.936 12.0358 19.232 11.7456 18.496 11.7134C18.336 11.7134 18.144 11.7134 17.984 11.7456L17.312 11.8424L17.44 11.1651C17.632 10.1977 17.056 9.19802 16.384 8.68205C15.2 7.71461 13.44 7.58561 12.16 8.35957C11.136 8.97228 10.496 10.1655 10.688 11.1651L10.784 11.7779L10.176 11.7456C9.79197 11.7134 9.40798 11.6811 9.02398 11.6811Z" fill="white"/>
<path d="M21.28 16.5507V15.5832H22.688C23.36 15.5832 24.032 15.5832 24.64 15.3575C25.472 15.0673 26.112 14.2933 26.304 13.4226C26.496 12.5519 26.208 11.5845 25.568 10.9395C25.056 10.4235 24.352 10.1333 23.616 10.1011C23.456 10.1011 23.264 10.1011 23.104 10.1333L22.4 10.1978L22.528 9.5206C22.72 8.55315 22.144 7.55346 21.472 7.0375C20.32 6.1023 18.528 5.97331 17.248 6.74726C16.704 7.06974 16.224 7.58571 15.968 8.16618L15.104 7.7792C15.456 7.00525 16.032 6.36029 16.768 5.90881C18.4 4.94137 20.608 5.10261 22.08 6.29579C23.008 7.0375 23.52 8.10168 23.552 9.13362C23.584 9.13362 23.616 9.13362 23.648 9.13362C24.64 9.16587 25.568 9.58509 26.24 10.2623C27.104 11.133 27.488 12.4229 27.232 13.6161C26.976 14.8093 26.08 15.8735 24.96 16.2604C24.192 16.5507 23.392 16.5507 22.688 16.5507H21.28Z" fill="white"/>
</svg>
