<svg width="51" height="62" viewBox="0 0 51 62" fill="none" xmlns="http://www.w3.org/2000/svg">
<path d="M25.0312 24.8125V18.625H22.9688V20.6875H20.7753L19.875 10.2863C19.8184 10.0554 19.7172 9.83787 19.577 9.64591L10.2957 0.364664C10.1995 0.268404 10.0852 0.192146 9.95932 0.140287C9.83347 0.0884276 9.69861 0.061993 9.5625 0.0625074H1.3125C1.039 0.0625074 0.776693 0.171157 0.583296 0.364553C0.389899 0.55795 0.28125 0.820253 0.28125 1.09376V4.18751V6.25001H5.01056L13.6875 14.9269V24.8125H11.625V22.75H9.5625V43.375H11.625V41.3125H13.6875V47.5C13.6875 51.3291 15.2086 55.0013 17.9161 57.7089C20.6237 60.4164 24.2959 61.9375 28.125 61.9375C31.9541 61.9375 35.6263 60.4164 38.3339 57.7089C41.0414 55.0013 42.5625 51.3291 42.5625 47.5V33.0625C42.545 32.6984 42.6093 32.335 42.7506 31.9989C42.8919 31.6629 43.1068 31.3628 43.3792 31.1207C44.9519 29.7295 48.4427 29.812 49.6544 29.9605C49.8568 29.9872 50.0626 29.9523 50.2449 29.8604C50.4272 29.7684 50.5776 29.6236 50.6764 29.4449C50.7774 29.2683 50.824 29.0658 50.8102 28.8629C50.7964 28.66 50.723 28.4656 50.599 28.3043L40.2865 14.8981C40.1271 14.6907 39.8948 14.5517 39.6367 14.5092C39.3786 14.4667 39.1139 14.5239 38.8964 14.6691C38.6262 14.8537 32.25 19.2438 32.25 31V44.8909C32.2472 46.0943 31.7807 47.2503 30.9474 48.1184C30.1142 48.9866 28.9784 49.5002 27.7761 49.5524C26.5739 49.6046 25.3979 49.1914 24.4925 48.3987C23.5872 47.606 23.0222 46.4948 22.9151 45.2962L22.3892 39.25H24V41.3125H26.0625V35.125H24V37.1875H22.2108L21.6725 31H24V33.0625H26.0625V26.875H24V28.9375H21.493L20.9547 22.75H22.9688V24.8125H25.0312ZM2.34375 2.12501H7.07306L5.01056 4.18751H2.34375V2.12501ZM9.5625 2.55194L17.3856 10.375L14.7188 13.0418L6.89569 5.21876L9.5625 2.55194ZM13.6875 26.875V31H11.625V26.875H13.6875ZM11.625 39.25V33.0625H13.6875V39.25H11.625ZM34.3125 35.686C34.9393 36.0462 35.4601 36.5654 35.8222 37.1911C36.1843 37.8169 36.375 38.527 36.375 39.25C36.375 39.973 36.1843 40.6832 35.8222 41.3089C35.4601 41.9346 34.9393 42.4538 34.3125 42.814V35.686ZM27.5784 51.625C29.3319 51.6224 31.0153 50.9363 32.271 49.7124C33.5267 48.4885 34.2557 46.8232 34.3032 45.0704C35.5104 44.6494 36.5569 43.8634 37.2976 42.8214C38.0384 41.7794 38.4369 40.5328 38.4379 39.2543C38.439 37.9758 38.0425 36.7286 37.3033 35.6854C36.5642 34.6422 35.519 33.8546 34.3125 33.4317V31C34.3125 22.6294 37.7476 18.461 39.3007 17.0039L41.1187 19.3675C42.0469 17.5938 41.0156 19.1406 41.0156 19.1406C41.1187 19.3675 41.1187 19.3675 41.1187 19.3675L42.3728 20.9969C42.3728 20.9508 42.5084 20.4946 42.3042 20.9078C42.3385 20.9524 42.3728 20.9969 42.3728 20.9969L47.6321 27.8299C45.8862 27.8856 43.5308 28.2373 42.0201 29.5717C41.5244 30.005 41.131 30.5428 40.8681 31.1465C40.6053 31.7501 40.4796 32.4045 40.5 33.0625V47.5C40.5 50.7821 39.1962 53.9297 36.8754 56.2505C34.5547 58.5712 31.4071 59.875 28.125 59.875C24.8429 59.875 21.6953 58.5712 19.3746 56.2505C17.0538 53.9297 15.75 50.7821 15.75 47.5V14.9269L18.0084 12.6685L20.8609 45.4746C21.0001 47.1574 21.7693 48.7257 23.0147 49.8659C24.2601 51.0062 25.8899 51.6344 27.5784 51.625Z" fill="#F8AA00"/>
</svg>
