<svg width="26" height="27" viewBox="0 0 26 27" fill="none" xmlns="http://www.w3.org/2000/svg">
<path d="M12.4132 9.45031H13.1532V16.2077H12.4132V9.45031Z" fill="white" stroke="white" stroke-width="0.26"/>
<path d="M12.8842 6.03438L12.8828 1.88232" stroke="white"/>
<path d="M20.1958 8.93743L22.3867 6.70801" stroke="white"/>
<path d="M10.748 2.35693H15.0169" stroke="white"/>
<mask id="path-5-inside-1_358_20440" fill="white">
<path d="M22.9683 15.2754C22.9683 20.7775 18.5079 25.2378 13.0059 25.2378C7.50378 25.2378 3.04346 20.7775 3.04346 15.2754C3.04346 9.77331 7.50378 5.31299 13.0059 5.31299C18.5079 5.31299 22.9683 9.77331 22.9683 15.2754ZM3.99527 15.2754C3.99527 20.2518 8.02945 24.286 13.0059 24.286C17.9823 24.286 22.0164 20.2518 22.0164 15.2754C22.0164 10.299 17.9823 6.26481 13.0059 6.26481C8.02945 6.26481 3.99527 10.299 3.99527 15.2754Z"/>
</mask>
<path d="M22.9683 15.2754C22.9683 20.7775 18.5079 25.2378 13.0059 25.2378C7.50378 25.2378 3.04346 20.7775 3.04346 15.2754C3.04346 9.77331 7.50378 5.31299 13.0059 5.31299C18.5079 5.31299 22.9683 9.77331 22.9683 15.2754ZM3.99527 15.2754C3.99527 20.2518 8.02945 24.286 13.0059 24.286C17.9823 24.286 22.0164 20.2518 22.0164 15.2754C22.0164 10.299 17.9823 6.26481 13.0059 6.26481C8.02945 6.26481 3.99527 10.299 3.99527 15.2754Z" fill="#C4C4C4" stroke="white" stroke-width="2" mask="url(#path-5-inside-1_358_20440)"/>
</svg>
