<svg width="142" height="107" viewBox="0 0 142 107" fill="none" xmlns="http://www.w3.org/2000/svg">
<path d="M1.1543 88.0894C1.1543 88.0894 9.57061 64.0441 19.5728 49.1677C27.1917 37.8394 40.3239 28.7093 44.9771 28.7093C57.046 28.7093 65.4116 47.8715 65.4116 47.8715C65.4116 47.8715 68.7924 25.3643 79.0485 21.5025C79.0485 21.5025 84.5499 22.969 88.5848 31.0896C88.5848 31.0896 93.7994 15.0813 100.764 15.0813C106.287 15.0813 110.172 32.6337 110.432 45.2134C110.432 45.2134 115.748 41.5279 120.739 41.5279C128.008 41.5279 141.012 86.7245 141.012 86.7245L1.1543 88.0894Z" fill="#FCFCFF"/>
<path d="M126.162 59.2654C126.162 66.0272 124.965 73.7506 121.518 73.7506C118.087 73.7506 44.95 67.404 42.3188 67.404C40.1714 67.404 33.9981 71.2179 31.4833 71.2179C30.0736 71.2179 22.2875 73.7536 19.9997 73.7536C16.5562 73.7536 16.1201 68.8406 16.1201 62.7747C16.1201 56.7119 18.9126 51.7959 22.3592 51.7959C23.4881 51.7959 24.5484 52.3245 25.4623 53.2474C26.1821 47.2054 28.6042 42.7643 31.4833 42.7643C34.0518 42.7643 36.256 46.3035 37.2147 51.3598C38.3436 48.7406 40.2102 47.0262 42.3188 47.0262C43.8091 47.0262 45.174 47.8774 46.2462 49.3021C46.6912 42.83 49.2836 37.8663 52.4166 37.8663C54.1877 37.8663 55.7885 39.4522 56.9234 42.0027C57.8732 38.0126 59.6383 35.3306 61.6602 35.3306C64.4646 35.3306 66.7763 40.4915 67.0988 47.1457C68.0665 43.5767 70.2587 41.0858 72.8033 41.0858C75.4405 41.0858 77.6954 43.7589 78.6093 47.5399V47.4653C78.6093 39.4462 82.2589 31.0956 85.7025 31.0956C88.7967 31.0956 91.9655 33.9956 91.9117 41.268C92.7988 35.7637 95.2388 35.3754 96.8427 35.6412C99.5426 36.0892 101.905 39.7478 102.744 45.4583C103.849 41.3726 105.803 38.6577 108.031 38.6577C111.474 38.6577 114.27 45.1596 114.27 53.1787C114.27 53.4953 114.264 53.8059 114.255 54.1195C115.246 49.9322 117.409 47.0262 119.917 47.0262C123.367 47.0233 126.162 52.5037 126.162 59.2654Z" fill="#70962D"/>
<path d="M18.1031 73.0456C18.1031 73.0456 15.8393 71.1969 16.1529 65.1848C16.4665 59.1727 18.9573 55.4215 21.5557 55.3409C24.154 55.2632 27.9948 58.2499 29.1447 67.8578C29.1447 67.8578 28.9774 58.0766 25.4622 53.2473C25.4622 53.2473 25.7369 48.0087 27.9769 45.2192C30.2169 42.4297 35.2314 48.0744 35.7929 55.7232C36.3544 63.3719 36.4679 65.2296 36.4679 65.2296C36.4679 65.2296 37.5341 53.531 43.0474 53.7669C48.5578 54.0029 47.9276 60.6153 47.9276 60.6153C47.9276 60.6153 45.3501 50.4996 46.7956 45.4402C48.2412 40.3809 53.5962 42.5313 54.9342 47.8713C56.2722 53.2114 57.1383 60.221 57.1383 60.221C57.1383 60.221 53.2288 41.5666 60.1817 35.8173C60.1817 35.8173 62.2544 49.0421 66.5074 52.7425C66.5074 52.7425 65.4382 44.4487 71.3666 41.3515C71.3666 41.3515 70.2795 54.6002 76.7784 59.8119L81.7033 60.2061C81.7033 60.2061 77.0352 56.3115 78.9347 42.7941C78.9347 42.7941 79.2871 36.113 83.4057 33.3235C83.4057 33.3235 80.3623 46.3601 85.1648 50.5324C85.1648 50.5324 87.9215 52.2647 90.7558 49.0361C90.7558 49.0361 90.269 40.9065 94.5667 36.6267C98.8645 32.3469 100.274 51.5807 98.6763 55.774C98.6763 55.774 100.337 46.5542 105.071 46.5542C112.988 46.5542 114.057 63.4466 114.057 63.4466C114.057 63.4466 111.94 50.5354 118.391 47.3845C118.391 47.3845 111.737 59.7312 125.986 63.5183C125.986 63.5183 125.592 71.8689 122.68 73.2875L18.1031 73.0456Z" fill="#647935"/>
<path d="M141.845 89.6156C141.845 98.7427 110.292 106.141 71.3699 106.141C32.4482 106.141 0.894531 98.7427 0.894531 89.6156C0.894531 84.8161 9.61548 76.803 23.5421 70.2802C36.1069 64.3965 52.9096 59.7255 71.367 59.7255C83.2597 59.7255 94.4625 61.6638 104.292 64.6176C126.629 71.3285 141.845 83.278 141.845 89.6156Z" fill="#70962D"/>
<path d="M72.8064 106.144C72.8064 106.144 57.2222 94.7735 58.6468 84.2039C59.9639 74.4316 77.7672 70.7252 67.2214 59.8151L64.1392 59.9704C75.2853 70.7162 56.3352 70.54 50.8816 82.9345C45.428 95.329 56.2038 105.758 56.2038 105.758" fill="#29350F"/>
<path d="M93.7996 105.182C93.7996 105.182 67.4427 94.7286 68.8643 84.1589C70.1814 74.3867 81.4529 70.6803 70.9071 59.7701L67.816 59.8149C78.3618 70.7221 61.1767 74.3867 59.8596 84.1589C58.435 94.7286 74.0192 106.099 74.0192 106.099" fill="#29350F"/>
<path d="M57.8163 36.594C57.8163 40.8738 54.3488 44.3413 50.069 44.3413C47.7902 44.3413 45.7414 43.3557 44.3227 41.7907C41.7363 45.4702 37.4595 47.8745 32.6211 47.8745C24.7275 47.8745 18.3271 41.4771 18.3271 33.5805C18.3271 27.1652 22.5532 21.7385 28.3712 19.9286C28.1442 18.9221 28.0277 17.8738 28.0277 16.7986C28.0277 8.90498 34.4281 2.50464 42.3217 2.50464C50.2154 2.50464 56.6157 8.90199 56.6157 16.7986C56.6157 21.858 53.9875 26.3051 50.0182 28.8437C50.0362 28.8407 50.0511 28.8407 50.069 28.8407C54.3488 28.8437 57.8163 32.3142 57.8163 36.594Z" fill="#29350F"/>
<path d="M34.2188 78.114L39.308 13.4177H40.5146L41.2254 78.114C38.5553 80.3689 36.2616 80.0852 34.2188 78.114Z" fill="#FCFCFF"/>
<path d="M40.5806 39.0728C42.9012 37.3018 44.4453 35.0708 45.3383 32.4545H46.2641C45.2755 35.459 43.3342 38.5561 40.5806 41.7279V39.0728Z" fill="#FCFCFF"/>
<path d="M37.6565 36.2146L37.8537 33.4072C34.7326 31.896 34.0069 25.2836 34.0069 25.2836L33.1079 25.8749C33.983 34.0732 37.6058 36.9015 37.6058 36.9015" fill="#FCFCFF"/>
<path d="M42.0169 25.9288C43.6515 25.9288 44.9766 24.6036 44.9766 22.969C44.9766 21.3344 43.6515 20.0093 42.0169 20.0093C40.3823 20.0093 39.0571 21.3344 39.0571 22.969C39.0571 24.6036 40.3823 25.9288 42.0169 25.9288Z" fill="#29350F"/>
<path d="M36.4709 45.2193C38.4008 45.2193 39.9653 43.6548 39.9653 41.7249C39.9653 39.7951 38.4008 38.2306 36.4709 38.2306C34.541 38.2306 32.9766 39.7951 32.9766 41.7249C32.9766 43.6548 34.541 45.2193 36.4709 45.2193Z" fill="#29350F"/>
<path d="M54.0358 60.3675C57.0658 60.3675 59.5222 55.7396 59.5222 50.0308C59.5222 44.322 57.0658 39.6941 54.0358 39.6941C51.0057 39.6941 48.5493 44.322 48.5493 50.0308C48.5493 55.7396 51.0057 60.3675 54.0358 60.3675Z" fill="#29350F"/>
<path d="M89.0239 36.1012C96.9298 36.1012 103.339 28.2052 103.339 18.4651C103.339 8.72502 96.9298 0.829102 89.0239 0.829102C81.118 0.829102 74.709 8.72502 74.709 18.4651C74.709 28.2052 81.118 36.1012 89.0239 36.1012Z" fill="#29350F"/>
<path d="M102.792 51.1449C108.45 51.1449 113.036 46.077 113.036 39.8255C113.036 33.5741 108.45 28.5062 102.792 28.5062C97.1343 28.5062 92.5479 33.5741 92.5479 39.8255C92.5479 46.077 97.1343 51.1449 102.792 51.1449Z" fill="#29350F"/>
<path d="M76.7845 44.4965C80.4859 44.4965 83.4865 41.1804 83.4865 37.0897C83.4865 32.999 80.4859 29.6829 76.7845 29.6829C73.0831 29.6829 70.0825 32.999 70.0825 37.0897C70.0825 41.1804 73.0831 44.4965 76.7845 44.4965Z" fill="#29350F"/>
<path d="M92.5481 76.7491C90.8457 78.0274 88.8178 77.8841 87.1184 76.7491L87.4649 45.2522C79.5712 41.6533 78.1914 36.4028 78.1914 36.4028L78.4094 35.7398C81.3572 41.9848 87.4888 43.1048 87.4888 43.1048L87.8173 13.4177H88.997L92.5481 76.7491Z" fill="#FCFCFF"/>
<path d="M91.1353 51.5868C91.1353 51.5868 97.676 48.6331 101.642 36.1012H102.204C102.204 36.1012 100.776 46.2348 91.2697 53.9463L91.1353 51.5868Z" fill="#FCFCFF"/>
<path d="M87.6949 24.4833L84.0572 19.0596L83.7197 19.5942L87.674 26.3708L87.6949 24.4833Z" fill="#FCFCFF"/>
<path d="M90.0004 79.4969C90.0004 79.4969 87.0585 66.7858 96.6695 66.6992C106.28 66.6126 102.204 79.4969 102.204 79.4969C102.204 79.4969 101.929 72.2722 107.935 72.7053C113.941 73.1413 110.459 80.7154 110.459 80.7154C110.459 80.7154 99.3156 81.5845 90.0004 79.4969Z" fill="#29350F"/>
<path d="M47.7515 69.7873C47.7515 69.7873 44.7858 63.6946 48.8626 63.0076C52.9423 62.3177 52.348 66.9799 52.348 66.9799C52.348 66.9799 53.2589 63.6946 56.4396 64.5965C59.6174 65.4985 57.2042 69.3124 57.2042 69.3124L45.1024 69.7903C45.1024 69.7903 43.8839 67.4607 45.7385 67.4069C47.5932 67.3502 47.7515 69.7873 47.7515 69.7873Z" fill="#29350F"/>
<path d="M53.8504 57.808V69.5664C53.8504 69.5664 53.1456 70.0621 52.3481 69.5664L53.3188 47.3309H53.8504V56.5297C53.8504 56.5297 56.9595 54.4242 56.8221 47.8626L57.1805 47.8835C57.1447 49.1259 57.8167 53.4804 53.8504 57.808Z" fill="#FCFCFF"/>
<path d="M27.9715 97.784C27.9715 97.784 17.8886 82.6358 28.076 81.6831C38.2634 80.7303 33.5355 92.8381 33.5355 92.8381C33.5355 92.8381 36.4505 82.3043 42.8658 86.614C48.9764 90.7176 37.9229 98.2529 37.9229 98.2529C34.2911 99.2026 31.1283 99.2414 27.9715 97.784Z" fill="#29350F"/>
<path d="M118.616 94.0328C118.616 94.0328 116.632 91.5659 115.772 90.0636L115.023 87.1128L114.273 86.5752L108.159 86.1451L105.37 88.6121L102.795 94.0298H118.616V94.0328Z" fill="#FCFCFF"/>
<path d="M108.156 86.149L110.704 90.3662L116.847 94.0337H102.792L105.366 88.616L108.156 86.149Z" fill="#647935"/>
<path d="M105.734 89.0034L106.552 90.8551L110.981 91.545L105.734 89.0034Z" fill="#FCFCFF"/>
<path d="M20.9585 98.3007L23.5539 95.2543L27.4484 94.1254L29.2524 95.5351L30.2111 99.5431L21.6365 99.0473L20.9585 98.3007Z" fill="#FCFCFF"/>
<path d="M23.5539 95.2543L25.3727 98.2947L30.2111 99.5431L21.6365 99.0473L20.9585 98.3006L23.5539 95.2543Z" fill="#647935"/>
</svg>
