<svg width="69" height="69" viewBox="0 0 69 69" fill="none" xmlns="http://www.w3.org/2000/svg">
<path d="M39.8906 47.4375H38.8125C38.2406 47.4375 37.6922 47.2103 37.2878 46.806C36.8834 46.4016 36.6562 45.8531 36.6562 45.2812V44.2031C36.6562 43.6313 36.8834 43.0828 37.2878 42.6784C37.6922 42.274 38.2406 42.0469 38.8125 42.0469C39.0984 42.0469 39.3727 41.9333 39.5749 41.7311C39.777 41.5289 39.8906 41.2547 39.8906 40.9688V39.3516C39.9017 36.9239 39.1263 34.5579 37.6806 32.6077C36.2349 30.6574 34.1965 29.2277 31.8705 28.5326L31.5276 17.25H35.5781V15.0938H31.4629L31.3972 12.9375H33.4219V10.7812H31.3325L31.2807 9.05625L33.4219 6.91509V2.15625H23.7188V6.91509L25.861 9.05625L25.8082 10.7812H23.7188V12.9375H25.7435L25.6777 15.0938H21.5625V17.25H25.613L25.2713 28.5326C22.945 29.2275 20.9064 30.6571 19.4605 32.6074C18.0145 34.5577 17.239 36.9238 17.25 39.3516V40.9688C17.25 41.2547 17.3636 41.5289 17.5658 41.7311C17.768 41.9333 18.0422 42.0469 18.3281 42.0469C18.9 42.0469 19.4484 42.274 19.8528 42.6784C20.2572 43.0828 20.4844 43.6313 20.4844 44.2031V45.2812C20.4844 45.8531 20.2572 46.4016 19.8528 46.806C19.4484 47.2103 18.9 47.4375 18.3281 47.4375H17.25C16.9641 47.4375 16.6898 47.5511 16.4877 47.7533C16.2855 47.9555 16.1719 48.2297 16.1719 48.5156V54.4453C16.1719 57.7336 17.4781 60.8872 19.8033 63.2123C22.1285 65.5375 25.282 66.8438 28.5703 66.8438C31.8586 66.8438 35.0122 65.5375 37.3373 63.2123C39.6625 60.8872 40.9688 57.7336 40.9688 54.4453V48.5156C40.9688 48.2297 40.8552 47.9555 40.653 47.7533C40.4508 47.5511 40.1766 47.4375 39.8906 47.4375ZM30.1552 43.125H26.9855L27.4027 29.3972L27.9989 9.70312H29.1417L29.7379 29.3972L30.1552 43.125ZM25.875 4.3125H31.2656V6.02241L29.7412 7.54688H27.3995L25.875 6.02241V4.3125ZM38.8125 54.4453C38.8125 57.1617 37.7334 59.7668 35.8126 61.6876C33.8918 63.6084 31.2867 64.6875 28.5703 64.6875C25.8539 64.6875 23.2488 63.6084 21.328 61.6876C19.4072 59.7668 18.3281 57.1617 18.3281 54.4453V49.5938C19.4719 49.5938 20.5688 49.1394 21.3775 48.3306C22.1863 47.5219 22.6406 46.425 22.6406 45.2812V44.2031C22.6396 43.2472 22.3215 42.3186 21.7362 41.5628C21.1509 40.807 20.3315 40.2667 19.4062 40.0265V39.3516C19.4164 37.5167 19.9731 35.7266 21.0053 34.2095C22.0374 32.6925 23.4982 31.5175 25.2012 30.8344L24.7969 44.1708C24.7925 44.3151 24.8172 44.4587 24.8695 44.5933C24.9217 44.7279 25.0004 44.8506 25.101 44.9541C25.2015 45.0577 25.3219 45.14 25.4548 45.1962C25.5878 45.2524 25.7307 45.2813 25.875 45.2812H31.2656C31.41 45.2813 31.5529 45.2524 31.6858 45.1962C31.8188 45.14 31.9391 45.0577 32.0396 44.9541C32.1402 44.8506 32.2189 44.7279 32.2712 44.5933C32.3234 44.4587 32.3481 44.3151 32.3438 44.1708L31.9395 30.8344C33.6424 31.5175 35.1032 32.6925 36.1354 34.2095C37.1675 35.7266 37.7242 37.5167 37.7344 39.3516V40.0265C36.8091 40.2667 35.9897 40.807 35.4044 41.5628C34.8191 42.3186 34.5011 43.2472 34.5 44.2031V45.2812C34.5 46.425 34.9544 47.5219 35.7631 48.3306C36.5719 49.1394 37.6688 49.5938 38.8125 49.5938V54.4453Z" fill="#F8AA00"/>
<path d="M32.3438 47.4375H24.7969V49.5938H32.3438V47.4375Z" fill="#F8AA00"/>
<path d="M31.2656 51.75H25.875C25.5891 51.75 25.3148 51.8636 25.1127 52.0658C24.9105 52.268 24.7969 52.5422 24.7969 52.8281V54.9844C24.7966 55.0727 24.8074 55.1607 24.8292 55.2464L25.875 59.4295V61.4531C25.875 61.7391 25.9886 62.0133 26.1908 62.2155C26.393 62.4177 26.6672 62.5312 26.9531 62.5312H30.1875C30.4734 62.5312 30.7477 62.4177 30.9499 62.2155C31.152 62.0133 31.2656 61.7391 31.2656 61.4531V59.4295L32.3114 55.2464C32.3332 55.1607 32.3441 55.0727 32.3438 54.9844V52.8281C32.3438 52.5422 32.2302 52.268 32.028 52.0658C31.8258 51.8636 31.5516 51.75 31.2656 51.75ZM30.1875 54.8518L29.1417 59.0349C29.1199 59.1205 29.1091 59.2085 29.1094 59.2969V60.375H28.0313V59.2969C28.0316 59.2085 28.0207 59.1205 27.9989 59.0349L26.9531 54.8518V53.9062H30.1875V54.8518Z" fill="#F8AA00"/>
<path d="M50.6719 2.15625V4.42031C49.455 4.67035 48.3616 5.33236 47.576 6.2947C46.7904 7.25705 46.3607 8.46085 46.3594 9.70312V59.2969C46.3607 60.5392 46.7904 61.743 47.576 62.7053C48.3616 63.6676 49.455 64.3296 50.6719 64.5797V66.8438H52.8281V2.15625H50.6719ZM48.5156 59.2969V9.70312C48.5184 9.03656 48.727 8.38713 49.113 7.84368C49.499 7.30023 50.0434 6.88931 50.6719 6.66713V62.3329C50.0434 62.1107 49.499 61.6998 49.113 61.1563C48.727 60.6129 48.5184 59.9634 48.5156 59.2969Z" fill="#F8AA00"/>
</svg>
